<svg width="771" height="802" viewBox="0 0 771 802" fill="none" xmlns="http://www.w3.org/2000/svg"><path d="M278.401 644.222l-.775-1.29 1.679-1.033.775 1.291-1.679 1.032zm-2.583-.774l-1.679-1.033.775-1.29 1.679 1.032-.775 1.291zm6.07-1.291l-.775-1.29 1.679-1.032.774 1.29-1.678 1.032zm-9.428-.774l-1.679-1.032.775-1.29 1.679 1.032-.775 1.29zm12.785-1.161l-.774-1.29 1.678-1.032.775 1.29-1.679 1.032zm-16.272-.903l-1.679-1.032.775-1.29 1.679 1.032-.775 1.29zm19.759-1.161l-.775-1.29 1.679-1.032.775 1.29-1.679 1.032zm-23.246-.903l-1.679-1.032.775-1.29 1.679 1.032-.775 1.29zm26.733-1.161l-.775-1.29 1.679-1.032.775 1.29-1.679 1.032zm-30.22-.903l-1.679-1.032.775-1.29 1.679 1.032-.775 1.29zm33.707-1.161l-.775-1.29 1.679-1.033.775 1.291-1.679 1.032zm-37.194-.774l-1.679-1.033.775-1.29 1.679 1.032-.775 1.291zm40.681-1.162l-.775-1.29 1.679-1.032.775 1.29-1.679 1.032zm-44.168-.903l-1.679-1.032.775-1.29 1.679 1.032-.775 1.29zm47.655-1.161l-.775-1.29 1.679-1.032.775 1.29-1.679 1.032zm-51.013-.903l-1.678-1.032.774-1.29 1.679 1.032-.775 1.29zm54.5-1.161l-.775-1.29 1.679-1.032.775 1.29-1.679 1.032zm-57.986-.903l-1.679-1.032.775-1.29 1.678 1.032-.774 1.29zm61.344-1.161l-.775-1.29 1.679-1.032.775 1.29-1.679 1.032zm-64.831-.903l-1.679-1.032.775-1.291 1.678 1.033-.774 1.29zm68.318-1.032l-.775-1.291 1.679-1.032.775 1.291-1.679 1.032zm-71.805-1.032l-1.679-1.033.775-1.29 1.679 1.032-.775 1.291zm75.292-1.033l-.775-1.29 1.679-1.032.775 1.29-1.679 1.032zm-78.779-.903l-1.679-1.032.775-1.29 1.679 1.032-.775 1.29zm82.266-1.161l-.775-1.29 1.679-1.032.774 1.29-1.678 1.032zm-85.624-.903l-1.679-1.032.775-1.29 1.679 1.032-.775 1.29zm89.111-1.032l-.775-1.29 1.679-1.032.774 1.29-1.678 1.032zm-92.598-1.032l-1.679-1.032.775-1.29 1.679 1.032-.775 1.29zm96.084-1.032l-.774-1.29 1.678-1.032.775 1.29-1.679 1.032zm-99.571-1.032l-1.679-1.032.775-1.291 1.679 1.033-.775 1.29zm103.058-1.032l-.774-1.291 1.678-1.032.775 1.29-1.679 1.033zm-106.545-1.033l-1.679-1.032.775-1.29 1.679 1.032-.775 1.29zm110.032-1.032l-.775-1.29 1.679-1.032.775 1.29-1.679 1.032zm-113.519-.903l-1.679-1.032.775-1.29 1.679 1.032-.775 1.29zm116.877-1.032l-.775-1.29 1.679-1.032.775 1.29-1.679 1.032zm-120.364-1.032l-1.679-1.032.775-1.29 1.679 1.032-.775 1.29zm123.851-1.032l-.775-1.29 1.679-1.032.775 1.29-1.679 1.032zm-127.208-1.032l-1.679-1.032.774-1.29 1.679 1.032-.774 1.29zm130.695-1.032l-.775-1.29 1.679-1.032.775 1.29-1.679 1.032zm-134.182-1.032l-1.679-1.032.775-1.291 1.678 1.033-.774 1.29zm137.669-1.032l-.775-1.291 1.679-1.032.775 1.29-1.679 1.033zm-141.156-1.033l-1.679-1.032.775-1.29 1.679 1.032-.775 1.29zm144.643-.903l-.775-1.29 1.679-1.032.775 1.29-1.679 1.032zm-148.13-1.032l-1.679-1.032.775-1.29 1.679 1.032-.775 1.29zm151.617-1.032l-.775-1.29 1.679-1.032.775 1.29-1.679 1.032zm-155.104-1.032l-1.679-1.032.775-1.29 1.679 1.032-.775 1.29zm158.591-1.032l-.775-1.29 1.679-1.032.775 1.29-1.679 1.032zm-162.078-1.032l-1.679-1.032.775-1.29 1.679 1.032-.775 1.29zm165.436-1.032l-.775-1.29 1.679-1.033.774 1.291-1.678 1.032zm-168.794-1.032l-1.679-1.032.775-1.291 1.679 1.032-.775 1.291zm172.28-.903l-.774-1.291 1.678-1.032.775 1.29-1.679 1.033zm-175.767-1.162l-1.679-1.032.775-1.29 1.679 1.032-.775 1.29zm179.254-.903l-.774-1.29 1.678-1.032.775 1.29-1.679 1.032zm-182.741-1.032l-1.679-1.032.775-1.29 1.679 1.032-.775 1.29zm186.228-1.032l-.775-1.29 1.679-1.032.775 1.29-1.679 1.032zm-189.715-1.032l-1.679-1.032.775-1.29 1.679 1.032-.775 1.29zm193.202-1.032l-.775-1.29 1.679-1.032.775 1.29-1.679 1.032zm-196.689-1.032l-1.679-1.032.775-1.29 1.679 1.032-.775 1.29zm200.176-.903l-.775-1.29 1.679-1.033.775 1.291-1.679 1.032zm-203.533-1.161l-1.679-1.033.774-1.29 1.679 1.032-.774 1.291zm207.02-.904l-.775-1.29 1.679-1.032.775 1.29-1.679 1.032zm-210.507-1.161l-1.679-1.032.775-1.29 1.678 1.032-.774 1.29zm213.994-.903l-.775-1.29 1.679-1.032.775 1.29-1.679 1.032zm-217.481-1.161l-1.679-1.032.775-1.29 1.679 1.032-.775 1.29zm220.839-.774l-.775-1.29 1.679-1.032.775 1.29-1.679 1.032zm-224.326-1.161l-1.679-1.032.775-1.29 1.679 1.032-.775 1.29zm227.813-.903l-.775-1.29 1.679-1.032.775 1.29-1.679 1.032zm-231.3-1.161l-1.679-1.032.775-1.29 1.679 1.032-.775 1.29zm234.787-.903l-.775-1.29 1.679-1.033.775 1.291-1.679 1.032zm-238.274-1.161l-1.679-1.033.775-1.29 1.679 1.032-.775 1.291zm241.761-.904l-.775-1.29 1.679-1.032.775 1.29-1.679 1.032zm-245.119-1.161L153 570.942l.775-1.29 1.679 1.032-.775 1.29zm248.606-.774l-.775-1.29 1.679-1.032.774 1.29-1.678 1.032zm-252.093-1.29l-1.679-1.032.775-1.29 1.679 1.032-.775 1.29zm255.58-.774l-.775-1.29 1.679-1.032.774 1.29-1.678 1.032zm-259.067-1.161l-1.679-1.032.775-1.29 1.679 1.032-.775 1.29zm262.553-.903l-.774-1.29 1.678-1.032.775 1.29-1.679 1.032zm-266.04-1.161l-1.679-1.032.775-1.291 1.679 1.033-.775 1.29zm269.398-.903l-.775-1.291 1.679-1.032.775 1.291-1.679 1.032zm-272.885-1.161l-1.679-1.033.775-1.29 1.679 1.032-.775 1.291zm276.372-.775l-.775-1.29 1.679-1.032.775 1.29-1.679 1.032zm-279.859-1.29l-1.679-1.032.775-1.29 1.679 1.032-.775 1.29zm283.346-.774l-.775-1.29 1.679-1.032.775 1.29-1.679 1.032zm-286.703-1.29l-1.679-1.032.775-1.29 1.678 1.032-.774 1.29zm290.19-.774l-.775-1.29 1.679-1.032.775 1.29-1.679 1.032zM130.4 557.783l-1.679-1.032.775-1.29 1.679 1.032-.775 1.29zm297.164-.903l-.775-1.29 1.679-1.032.775 1.29-1.679 1.032zm-300.651-1.161l-1.679-1.032.775-1.291 1.679 1.033-.775 1.29zm304.138-.774l-.775-1.291 1.679-1.032.775 1.291-1.679 1.032zm-307.625-1.291l-1.679-1.032.775-1.29 1.679 1.032-.775 1.29zm311.112-.774l-.775-1.29 1.679-1.032.775 1.29-1.679 1.032zm-314.599-1.29l-1.679-1.032.775-1.29 1.679 1.032-.775 1.29zm317.957-.774l-.775-1.29 1.679-1.032.775 1.29-1.679 1.032zm-321.315-1.29l-1.679-1.032.775-1.29 1.679 1.032-.775 1.29zm324.802-.774l-.775-1.29 1.679-1.032.774 1.29-1.678 1.032zm-328.289-1.161l-1.679-1.032.775-1.29 1.679 1.032-.775 1.29zm331.776-.774l-.775-1.29 1.679-1.032.774 1.29-1.678 1.032zm-335.263-1.29l-1.679-1.032.775-1.291 1.679 1.033-.775 1.29zm338.749-.774l-.774-1.291 1.678-1.032.775 1.29-1.679 1.033zm-342.236-1.291l-1.679-1.032.775-1.29 1.679 1.032-.775 1.29zm345.723-.774l-.774-1.29 1.678-1.032.775 1.29-1.679 1.032zm-349.21-1.29l-1.679-1.032.775-1.29 1.679 1.032-.775 1.29zm352.697-.645l-.775-1.29 1.679-1.032.775 1.29-1.679 1.032zm-356.184-1.419l-1.678-1.032.774-1.29 1.68 1.032-.776 1.29zm359.671-.645l-.775-1.29 1.679-1.032.775 1.29-1.679 1.032zM95.789 537.27l-1.68-1.032.776-1.29 1.678 1.032-.774 1.29zm366.515-.645l-.775-1.29 1.679-1.032.775 1.29-1.679 1.032zm-370.002-1.29l-1.68-1.032.776-1.291 1.678 1.032-.774 1.291zm373.36-.774l-.775-1.291 1.679-1.032.775 1.29-1.679 1.033zM88.815 533.27l-1.68-1.032.776-1.29 1.679 1.032-.775 1.29zm380.334-.645l-.775-1.29 1.679-1.032.775 1.29-1.679 1.032zm-383.821-1.419l-1.68-1.032.776-1.29 1.679 1.032-.775 1.29zm387.308-.645l-.775-1.29 1.679-1.032.775 1.29-1.679 1.032zm-390.795-1.419l-1.679-1.032.775-1.29 1.679 1.032-.775 1.29zm394.282-.645l-.775-1.29 1.679-1.032v.129l.258-.387 1.55.903-2.712 1.677zM80.42 527.078l-.775-1.29 1.68-1.032.774 1.29-1.679 1.032zm394.411-.903l-1.679-1.032.775-1.291 1.679 1.033-.775 1.29zm-390.924-1.032l-.775-1.291 1.68-1.032.774 1.29-1.679 1.033zm387.437-.904l-1.679-1.032.775-1.29 1.679 1.032-.775 1.29zm-383.95-1.161l-.775-1.29 1.68-1.032.774 1.29-1.679 1.032zm380.463-.903l-1.678-1.032.774-1.29 1.679 1.032-.775 1.29zm-376.976-1.032l-.775-1.29 1.68-1.032.774 1.29-1.679 1.032zm373.619-.903l-1.679-1.032.775-1.29 1.679 1.032-.775 1.29zm-370.132-1.161l-.775-1.29 1.679-1.032.775 1.29-1.679 1.032zm366.645-.903l-1.679-1.032.775-1.29 1.679 1.032-.775 1.29zm-363.158-1.032l-.775-1.29 1.679-1.032.775 1.29-1.68 1.032zm359.671-1.032l-1.679-1.032.775-1.291 1.679 1.033-.775 1.29zm-356.184-1.032l-.775-1.291 1.679-1.032.775 1.29-1.679 1.033zm352.697-.904l-1.679-1.032.775-1.29 1.679 1.032-.775 1.29zm-349.21-1.032l-.775-1.29 1.679-1.032.775 1.29-1.679 1.032zm345.723-1.032l-1.679-1.032.775-1.29 1.679 1.032-.775 1.29zm-342.236-1.032l-.775-1.29 1.679-1.032.775 1.29-1.679 1.032zm338.749-.903l-1.679-1.032.775-1.29 1.679 1.032-.775 1.29zm-335.262-1.161l-.775-1.29 1.679-1.032.775 1.29-1.679 1.032zm331.775-.903l-1.679-1.032.775-1.29 1.679 1.032-.775 1.29zm-328.418-1.032l-.774-1.29 1.678-1.032.775 1.29-1.679 1.032zm324.931-.903l-1.679-1.032.775-1.291 1.679 1.033-.775 1.29zm-321.444-1.161l-.774-1.291 1.678-1.032.775 1.29-1.679 1.033zm317.957-.904l-1.679-1.032.775-1.29 1.679 1.032-.775 1.29zm-314.47-1.032l-.775-1.29 1.679-1.032.775 1.29-1.679 1.032zm310.983-.903l-1.679-1.032.775-1.29 1.679 1.032-.775 1.29zm-307.496-1.161l-.775-1.29 1.679-1.032.775 1.29-1.679 1.032zm304.009-.903l-1.679-1.032.775-1.29 1.679 1.032-.775 1.29zm-300.522-1.032l-.775-1.29 1.679-1.032.775 1.29-1.679 1.032zm297.035-1.032l-1.679-1.032.775-1.29 1.679 1.032-.775 1.29zm-293.548-1.032l-.775-1.29 1.679-1.033.775 1.291-1.679 1.032zm290.061-.903l-1.678-1.032.774-1.291 1.679 1.033-.775 1.29zm-286.574-1.161l-.775-1.291 1.679-1.032.775 1.29-1.679 1.033zm283.087-.904l-1.678-1.032.775-1.29 1.678 1.032-.775 1.29zm-279.6-1.032l-.775-1.29 1.679-1.032.775 1.29-1.679 1.032zm276.114-.903l-1.679-1.032.775-1.29 1.678 1.032-.774 1.29zm-272.627-1.161l-.775-1.29 1.679-1.032.775 1.29-1.679 1.032zm269.14-.903l-1.679-1.032.775-1.29 1.679 1.032-.775 1.29zm-265.653-1.032l-.775-1.29 1.679-1.032.775 1.29-1.679 1.032zm262.166-.903l-1.679-1.032.775-1.29 1.679 1.032-.775 1.29zm-258.679-1.161l-.775-1.29 1.679-1.033.775 1.291-1.679 1.032zm255.192-.903l-1.679-1.032.775-1.291 1.679 1.032-.775 1.291zm-251.705-1.032l-.775-1.291 1.679-1.032.775 1.29-1.679 1.033zm248.218-1.033l-1.679-1.032.775-1.29 1.679 1.032-.775 1.29zm-244.731-1.032l-.775-1.29 1.679-1.032.775 1.29-1.679 1.032zm241.244-.903l-1.679-1.032.775-1.29 1.679 1.032-.775 1.29zm-237.757-1.161l-.775-1.29 1.679-1.032.775 1.29-1.679 1.032zm234.27-.903l-1.679-1.032.775-1.29 1.679 1.032-.775 1.29zm-230.783-1.032l-.775-1.29 1.679-1.032.774 1.29-1.678 1.032zm227.296-.903l-1.679-1.032.775-1.29 1.679 1.032-.775 1.29zm-223.81-1.161l-.774-1.29 1.678-1.033.775 1.291-1.679 1.032zm220.323-.903l-1.679-1.033.775-1.29 1.679 1.032-.775 1.291zm-216.836-1.033l-.774-1.29 1.678-1.032.775 1.29-1.679 1.032zm213.349-.903l-1.679-1.032.775-1.29 1.679 1.032-.775 1.29zm-209.862-1.161l-.775-1.29 1.679-1.032.775 1.29-1.679 1.032zm206.375-.903l-1.679-1.032.775-1.29 1.679 1.032-.775 1.29zm-202.888-1.032l-.775-1.29 1.679-1.032.775 1.29-1.679 1.032zm199.401-1.032l-1.679-1.032.775-1.29 1.679 1.032-.775 1.29zm-195.914-1.032l-.775-1.29 1.679-1.032.775 1.29-1.679 1.032zm192.427-.903l-1.679-1.032.775-1.29 1.679 1.032-.775 1.29zm-188.94-1.161l-.775-1.29 1.679-1.033.775 1.291-1.679 1.032zm185.583-.903l-1.679-1.033.775-1.29 1.678 1.032-.774 1.291zm-182.096-1.033l-.775-1.29 1.679-1.032.775 1.29-1.679 1.032zm178.609-.903l-1.679-1.032.775-1.29 1.679 1.032-.775 1.29zm-175.122-1.161l-.775-1.29 1.679-1.032.775 1.29-1.679 1.032zm171.635-.903l-1.679-1.032.775-1.29 1.679 1.032-.775 1.29zm-168.148-1.032l-.775-1.29 1.679-1.032.775 1.29-1.679 1.032zm164.661-.903l-1.679-1.032.775-1.29 1.679 1.032-.775 1.29zm-161.174-1.161l-.775-1.29 1.679-1.032.775 1.29-1.679 1.032zm157.687-.903l-1.679-1.032.775-1.29 1.679 1.032-.775 1.29zm-154.2-1.032l-.775-1.29 1.679-1.033.775 1.291-1.679 1.032zm150.713-1.032l-1.679-1.033.775-1.29 1.679 1.032-.775 1.291zm-147.226-1.033l-.775-1.29 1.679-1.032.775 1.29-1.679 1.032zm143.739-.903l-1.679-1.032.775-1.29 1.679 1.032-.775 1.29zm-140.252-1.161l-.775-1.29 1.679-1.032.775 1.29-1.679 1.032zm136.765-.903l-1.679-1.032.775-1.29 1.679 1.032-.775 1.29zm-133.408-1.032l-.774-1.29 1.679-1.032.774 1.29-1.679 1.032zm129.921-.903l-1.679-1.032.775-1.29 1.679 1.032-.775 1.29zm-126.434-1.161l-.774-1.29 1.678-1.032.775 1.29-1.679 1.032zm122.947-.903l-1.679-1.032.775-1.29 1.679 1.032-.775 1.29zm-119.46-1.032l-.775-1.29 1.679-1.033.775 1.291-1.679 1.032zm115.973-.903l-1.679-1.033.775-1.29 1.679 1.032-.775 1.291zm-112.486-1.162l-.775-1.29 1.679-1.032.775 1.29-1.679 1.032zm108.999-.903l-1.679-1.032.775-1.29 1.679 1.032-.775 1.29zm-105.512-1.032l-.775-1.29 1.679-1.032.775 1.29-1.679 1.032zm102.025-1.032l-1.679-1.032.775-1.29 1.679 1.032-.775 1.29zm-98.538-1.032l-.775-1.29 1.679-1.032.775 1.29-1.679 1.032zm95.051-.903l-1.678-1.032.774-1.29 1.679 1.032-.775 1.29zm-91.564-1.032l-.775-1.29 1.679-1.032.775 1.29-1.679 1.032zm88.077-1.032l-1.678-1.032.774-1.291 1.679 1.033-.775 1.29zm-84.59-1.032l-.775-1.291 1.679-1.032.775 1.291-1.679 1.032zm81.104-.903l-1.679-1.033.775-1.29 1.678 1.032-.774 1.291zm-77.617-1.162l-.775-1.29 1.679-1.032.775 1.29-1.679 1.032zm74.13-.903l-1.679-1.032.775-1.29 1.678 1.032-.774 1.29zm-70.643-1.032l-.775-1.29 1.679-1.032.775 1.29-1.679 1.032zm67.156-.903l-1.679-1.032.775-1.29 1.679 1.032-.775 1.29zm-63.669-1.161l-.775-1.29 1.679-1.032.775 1.29-1.679 1.032zm60.182-.903l-1.679-1.032.775-1.29 1.679 1.032-.775 1.29zm-56.695-1.032l-.775-1.29 1.679-1.032.775 1.29-1.679 1.032zm53.208-.903l-1.679-1.032.775-1.291 1.679 1.033-.775 1.29zm-49.721-1.161l-.775-1.291 1.679-1.032.775 1.29-1.679 1.033zm46.234-.903l-1.679-1.033.775-1.29 1.679 1.032-.775 1.291zm-42.747-1.033l-.775-1.29 1.679-1.032.775 1.29-1.679 1.032zm39.26-1.032l-1.679-1.032.775-1.29 1.679 1.032-.775 1.29zm-35.773-1.032l-.775-1.29 1.679-1.032.774 1.29-1.678 1.032zm32.286-.903l-1.679-1.032.775-1.29 1.679 1.032-.775 1.29zm-28.799-1.161l-.775-1.29 1.679-1.032.774 1.29-1.678 1.032zm25.312-.903l-1.679-1.032.775-1.29 1.679 1.032-.775 1.29zm-21.826-1.032l-.774-1.29 1.678-1.032.775 1.29-1.679 1.032zm18.339-.903l-1.679-1.032.775-1.291 1.679 1.033-.775 1.29zm-14.852-1.161l-.774-1.291 1.678-1.032.775 1.29-1.679 1.033zm11.365-.904l-1.679-1.032.775-1.29 1.679 1.032-.775 1.29zm-7.878-1.032l-.775-1.29 1.679-1.032.775 1.29-1.679 1.032zm4.391-.903l-1.679-1.032.775-1.29 1.679 1.032-.775 1.29z" fill="#192CDB"/><path d="M230.913 680.47l-1.292.774.646.387.646-1.161zM181.579 691.178l-.388.129.646.387-.258-.516z" fill="#4756E2"/><path d="M261.003 661.118l-.774 1.29.774.387 1.163-.645.258.516.258-.516-1.679-1.032zm108.354-1.548l-1.679 1.032.775 1.29 1.679-1.032-.775-1.29zm-111.84-.516l-.775 1.29 1.679 1.032.774-1.29-1.678-1.032zm-3.487-2.065l-.775 1.29 1.679 1.033.775-1.291-1.679-1.032zm-3.487-1.935l-.775 1.29 1.679 1.032.775-1.29-1.679-1.032zm-3.487-2.064l-.775 1.29 1.679 1.032.775-1.29-1.679-1.032zm-3.358-2.064l-.775 1.29 1.679 1.032.775-1.29-1.679-1.032zm-3.487-2.065l-.775 1.291 1.679 1.032.775-1.29-1.679-1.033zm-3.487-2.064l-.775 1.29 1.679 1.032.775-1.29-1.679-1.032zm-2.066-1.935l-2.196 1.29 1.808 1.032.259-.516.774-.516-.645-1.29zm3.487-2.064l-1.679 1.032.775 1.29 1.679-1.032-.775-1.29zm3.487-2.064l-1.679 1.032.775 1.29 1.678-1.032-.774-1.29zm3.487-1.936l-1.679 1.033.775 1.29 1.678-1.032-.774-1.291zm3.357-2.064l-1.679 1.032.775 1.29 1.679-1.032-.775-1.29zm3.487-1.935l-1.679 1.032.775 1.29 1.679-1.032-.775-1.29zm3.487-2.064l-1.679 1.032.775 1.29 1.679-1.032-.775-1.29zm3.487-1.935l-1.679 1.032.775 1.29 1.679-1.032-.775-1.29zm3.487-2.065l-1.679 1.033.775 1.29 1.679-1.032-.775-1.291zm3.487-2.064l-1.679 1.032.775 1.29 1.679-1.032-.775-1.29zm3.487-1.935l-1.679 1.032.775 1.29 1.679-1.032-.775-1.29zm3.487-2.064l-1.679 1.032.775 1.29 1.679-1.032-.775-1.29zm3.487-1.935l-1.679 1.032.775 1.29 1.679-1.032-.775-1.29zm3.487-2.065l-1.679 1.032.775 1.291 1.679-1.032-.775-1.291zm3.487-1.935l-1.679 1.032.775 1.29 1.679-1.032-.775-1.29zm3.487-2.064l-1.679 1.032.775 1.29 1.679-1.032-.775-1.29zm2.841-1.548l-1.033.645.775 1.29 1.678-1.032-.129-.129-1.291-.774z" fill="#fff" fill-opacity=".1"/><path d="M262.166 662.15l-1.292.645 1.034.645.516-.774-.258-.516z" fill="#4756E2"/><path d="M312.92 691.694l-.775 1.29 1.55.903.904-.516-.517-.903h-.129l-.129-.258-.129.129-.775-.645zm4.391-1.548l-1.679 1.032.775 1.29 1.679-1.032-.775-1.29zm-7.878-.516l-.775 1.29 1.679 1.032.775-1.29-1.679-1.032zm11.365-1.548l-1.679 1.032.775 1.29 1.679-1.032-.775-1.29zm-14.852-.388l-.775 1.291 1.679 1.032.775-1.29-1.679-1.033zm18.339-1.677l-1.679 1.032.775 1.291 1.679-1.033-.775-1.29zm-21.697-.387l-.774 1.29 1.678 1.033.775-1.291-1.679-1.032zm25.184-1.677l-1.679 1.032.775 1.29 1.679-1.032-.775-1.29zm-28.67-.387l-.775 1.29 1.679 1.032.774-1.29-1.678-1.032zm32.157-1.548l-1.679 1.032.775 1.29 1.679-1.032-.775-1.29zm-35.644-.516l-.775 1.29 1.679 1.032.774-1.29-1.678-1.032zm39.131-1.548l-1.679 1.032.775 1.29 1.679-1.032-.775-1.29zm-42.618-.516l-.775 1.29 1.679 1.032.775-1.29-1.679-1.032zm46.105-1.549l-1.679 1.033.775 1.29 1.679-1.032-.775-1.291zm-49.592-.516l-.775 1.291 1.679 1.032.775-1.29-1.679-1.033zm52.949-1.548l-1.678 1.032.774 1.291 1.679-1.033-.775-1.29zm-56.436-.387l-.775 1.29 1.679 1.032.775-1.29-1.679-1.032zm59.923-1.548l-1.679 1.032.775 1.29 1.679-1.032-.775-1.29zm-63.281-.516l-.775 1.29 1.679 1.032.775-1.29-1.679-1.032zm66.768-1.548l-1.679 1.032.775 1.29 1.679-1.032-.775-1.29zm-70.255-.516l-.775 1.29 1.679 1.032.775-1.29-1.679-1.032zm73.742-1.548l-1.679 1.032.775 1.29 1.679-1.032-.775-1.29zm-77.229-.516l-.775 1.29 1.679 1.032.775-1.29-1.679-1.032zm80.974-1.032l-.387.645-.904-.516-.775.387.775 1.29 1.679-1.032-.388-.774zm-84.461-1.033l-.775 1.291 1.679 1.032.775-1.29-1.679-1.033zm87.69-1.419l-1.679 1.032.775 1.291 1.679-1.033-.775-1.29zm-91.177-.516l-.775 1.29 1.679 1.032.775-1.29-1.679-1.032zm94.664-1.548l-1.679 1.032.775 1.29 1.679-1.032-.775-1.29zm-98.022-.516l-.774 1.29 1.678 1.032.775-1.29-1.679-1.032zm101.509-1.548l-1.679 1.032.775 1.29 1.679-1.032-.775-1.29z" fill="#fff" fill-opacity=".1"/><path d="M550.677 547.586l-1.549-.903.774-1.29.775.516.13-.129.129.258h.129l.516.903-.904.645zm2.583-1.548l-.775-1.29 1.679-1.032.775 1.29-1.679 1.032zm-5.94-.516l-1.679-1.032.775-1.29 1.678 1.032-.774 1.29zm9.427-1.548l-.775-1.29 1.679-1.032.775 1.29-1.679 1.032zm-12.914-.387l-1.679-1.032.775-1.29 1.679 1.032-.775 1.29zm16.401-1.677l-.775-1.291 1.679-1.032.775 1.29-1.679 1.033zm-19.759-.387l-1.679-1.033.775-1.29 1.679 1.032-.775 1.291zm23.246-1.678l-.775-1.29 1.679-1.032.775 1.29-1.679 1.032zm-26.733-.387l-1.679-1.032.775-1.29 1.679 1.032-.775 1.29zm30.22-1.548l-.775-1.29 1.679-1.032.775 1.29-1.679 1.032zm-33.707-.516l-1.679-1.032.775-1.29 1.679 1.032-.775 1.29zm37.194-1.548l-.775-1.29 1.679-1.032.775 1.29-1.679 1.032zm-40.681-.516l-1.679-1.032.775-1.29 1.679 1.032-.775 1.29zm44.168-1.548l-.775-1.29 1.679-1.032.775 1.29-1.679 1.032zm-47.655-.387l-1.679-1.032.775-1.291 1.679 1.033-.775 1.29zm51.013-1.677l-.775-1.291 1.679-1.032.775 1.29-1.679 1.033zm-54.5-.387l-1.679-1.033.775-1.29 1.679 1.032-.775 1.291zm57.987-1.549l-.775-1.29 1.679-1.032.775 1.29-1.679 1.032zm-61.345-.516l-1.679-1.032.775-1.29 1.679 1.032-.775 1.29zm64.832-1.548l-.775-1.29 1.679-1.032.774 1.29-1.678 1.032zm-68.319-.516l-1.678-1.032.774-1.29 1.679 1.032-.775 1.29zM588 525.654l-.774-1.29 1.678-1.032.775 1.29-1.679 1.032zm-75.291-.516l-1.679-1.032.774-1.29 1.679 1.032-.774 1.29zm78.778-1.548l-.774-1.29 1.678-1.032.775 1.29-1.679 1.032zm-82.265-.516l-1.679-1.032.775-1.291 1.678 1.033-.774 1.29zm85.752-1.419l-.775-1.291 1.679-1.032.775 1.29-1.679 1.033zm-89.239-.517l-1.679-1.032.775-1.29 1.679 1.032-.775 1.29zm92.726-1.548l-.775-1.29 1.679-1.032.775 1.29-1.679 1.032zm-96.084-.516l-1.679-1.032.775-1.29 1.679 1.032-.775 1.29zm99.571-1.548l-.775-1.29 1.679-1.032.775 1.29-1.679 1.032zm-103.058-.516l-1.679-1.032.775-1.29 1.679 1.032-.775 1.29zm106.416-1.419l-.775-1.29 1.679-1.032.775 1.29-1.679 1.032zm-109.903-.645l-1.679-1.032.775-1.29 1.679 1.032-.775 1.29zm113.39-1.419l-.775-1.29 1.679-1.033.775 1.291-1.679 1.032zm-116.877-.645l-1.679-1.032.775-1.291 1.679 1.033-.775 1.29zm120.364-1.419l-.775-1.291 1.679-1.032.775 1.29-1.679 1.033zm-123.851-.517l-1.679-1.032.775-1.29 1.679 1.032-.775 1.29zm127.338-1.548l-.775-1.29 1.679-1.032.775 1.29-1.679 1.032zm-130.825-.516l-1.679-1.032.775-1.29 1.679 1.032-.775 1.29zm134.312-1.419l-.775-1.29 1.679-1.032.775 1.29-1.679 1.032zm-137.67-.645l-1.678-1.032.774-1.29 1.679 1.032-.775 1.29zm141.157-1.419l-.775-1.29 1.679-1.032.775 1.29-1.679 1.032zm-144.644-.645l-1.678-1.032.774-1.29 1.679 1.032-.775 1.29zm148.131-1.419l-.775-1.29 1.679-1.033.775 1.291-1.679 1.032zm-151.617-.645l-1.679-1.032.774-1.291 1.679 1.032-.774 1.291zm154.974-1.42l-.774-1.29 1.549-.903.259-.516 1.808 1.032-2.842 1.677zm-158.461-.516l-1.808-1.032 2.195-1.29.775 1.29-.775.516-.387.516zm157.17-1.806l-1.679-1.032.775-1.29 1.679 1.032-.775 1.29zm-154.329-.258l-.775-1.29 1.679-1.032.775 1.29-1.679 1.032zm150.842-1.806l-1.679-1.032.775-1.29 1.679 1.032-.775 1.29zm-147.355-.258l-.775-1.29 1.679-1.032.775 1.29-1.679 1.032zm143.868-1.677l-1.679-1.032.775-1.29 1.679 1.032-.775 1.29zm-140.381-.258l-.775-1.29 1.679-1.032.775 1.29-1.679 1.032zm136.894-1.806l-1.808-1.032.775-1.291 1.679 1.033-.646 1.29zm-133.407-.258l-.775-1.291 1.679-1.032.774 1.291-1.678 1.032zm129.92-1.678l-1.679-1.032.775-1.29 1.679 1.032-.775 1.29zm-126.433-.258l-.775-1.29 1.679-1.032.774 1.29-1.678 1.032zm122.946-1.806l-1.679-1.032.775-1.29 1.679 1.032-.775 1.29zm-119.46-.258l-.774-1.29 1.679-1.032.774 1.29-1.679 1.032zm115.973-1.806l-1.679-1.032.775-1.29 1.679 1.032-.775 1.29zm-112.486-.129l-.774-1.29 1.678-1.032.775 1.29-1.679 1.032zm108.999-1.806l-1.679-1.032.775-1.29 1.679 1.032-.775 1.29zm-105.512-.258l-.775-1.29 1.679-1.032.775 1.29-1.679 1.032zm102.025-1.806l-1.678-1.032.774-1.291 1.679 1.032-.775 1.291zm-98.538-.258l-.775-1.291 1.679-1.032.775 1.29-1.679 1.033zm95.052-1.678l-1.679-1.032.774-1.29 1.679 1.032-.774 1.29zm-91.565-.258l-.775-1.29 1.679-1.032.775 1.29-1.679 1.032zm88.078-1.806l-1.679-1.032.775-1.29 1.678 1.032-.774 1.29zm-84.591-.258l-.775-1.29 1.679-1.032.775 1.29-1.679 1.032zm81.104-1.677l-1.679-1.032.775-1.29 1.679 1.032-.775 1.29zm-77.617-.258l-.775-1.29 1.679-1.032.775 1.29-1.679 1.032zm74.13-1.806l-1.679-1.032.775-1.29 1.679 1.032-.775 1.29zm-70.643-.258l-.775-1.29 1.679-1.032.775 1.29-1.679 1.032zm67.156-1.806l-1.679-1.033.775-1.29 1.679 1.032-.775 1.291zm-63.669-.129l-.775-1.291 1.679-1.032.775 1.29-1.679 1.033zm60.182-1.807l-1.679-1.032.775-1.29 1.679 1.032-.775 1.29zm-56.695-.258l-.775-1.29 1.679-1.032.775 1.29-1.679 1.032zm53.208-1.806l-1.679-1.032.775-1.29 1.679 1.032-.775 1.29zm-49.721-.258l-.775-1.29 1.679-1.032.775 1.29-1.679 1.032zm46.234-1.677l-1.679-1.032.775-1.29 1.679 1.032-.775 1.29zm-42.747-.258l-.775-1.29 1.679-1.032.775 1.29-1.679 1.032zm39.26-1.806l-1.679-1.032.775-1.29 1.679 1.032-.775 1.29zm-35.773-.258l-.775-1.29 1.679-1.032.775 1.29-1.679 1.032zm32.286-1.677l-1.679-1.033.775-1.29 1.679 1.032-.775 1.291zm-28.799-.258l-.775-1.291 1.679-1.032.775 1.29-1.679 1.033zm25.312-1.807l-1.679-1.032.775-1.29 1.679 1.032-.775 1.29zm-21.825-.258l-.775-1.29 1.679-1.032.774 1.29-1.678 1.032zm18.338-1.677l-1.679-1.032.775-1.29 1.679 1.032-.775 1.29zm-14.852-.258l-.774-1.29 1.679-1.032.774 1.29-1.679 1.032zm11.365-1.806l-1.679-1.032.775-1.29 1.679 1.032-.775 1.29zm-7.878-.258l-.774-1.29 1.678-1.032.775 1.29-1.679 1.032zm4.391-1.806l-.645-.387-.259.129-.775-1.29 1.034-.645 1.42.903-.775 1.29z" fill="#192CDB"/><path d="M464.021 799.678l-.775 1.29 1.679 1.032.774-1.29-1.678-1.032zm4.391-.258l-1.679 1.032.775 1.29 1.678-1.032-.774-1.29zm-7.878-1.807l-.775 1.291 1.679 1.032.775-1.29-1.679-1.033zm11.364-.258l-1.678 1.033.774 1.29 1.679-1.032-.775-1.291zm-14.851-1.806l-.775 1.29 1.679 1.033.775-1.291-1.679-1.032zm18.338-.129l-1.679 1.032.775 1.291 1.679-1.033-.775-1.29zm-21.825-1.935l-.775 1.29 1.679 1.032.775-1.29-1.679-1.032zm25.312-.129l-1.679 1.032.775 1.29 1.679-1.032-.775-1.29zm-28.67-1.935l-.775 1.29 1.679 1.032.775-1.29-1.679-1.032zm32.157-.129l-1.679 1.032.775 1.29 1.679-1.032-.775-1.29zm-35.644-1.935l-.775 1.29 1.679 1.032.775-1.29-1.679-1.032zm39.131-.129l-1.679 1.032.775 1.29 1.679-1.032-.775-1.29zm-42.618-1.807l-.775 1.291 1.679 1.032.775-1.29-1.679-1.033zm45.976-.129l-1.679 1.033.775 1.29 1.679-1.032-.775-1.291zm-49.463-1.935l-.775 1.29 1.679 1.032.775-1.29-1.679-1.032zm52.95-.129l-1.679 1.032.775 1.29 1.679-1.032-.775-1.29zm-56.437-1.935l-.775 1.29 1.679 1.032.775-1.29-1.679-1.032zm59.924-.129l-1.679 1.032.775 1.29 1.679-1.032-.775-1.29zm-63.411-1.935l-.775 1.29 1.679 1.032.775-1.29-1.679-1.032zm66.898-.129l-1.679 1.032.775 1.29 1.679-1.032-.775-1.29zm-70.255-1.935l-.775 1.29 1.679 1.032.774-1.29-1.678-1.032zm73.742 0l-1.679 1.032.775 1.29 1.679-1.032-.775-1.29zm-77.229-1.936l-.775 1.291 1.679 1.032.774-1.29-1.678-1.033zm80.716-.129l-1.679 1.033.775 1.29 1.679-1.032-.775-1.291zm-84.203-1.935l-.775 1.29 1.679 1.032.775-1.29-1.679-1.032zm87.69-.129l-1.679 1.032.775 1.29 1.678-1.032-.774-1.29zm-91.177-1.935l-.775 1.29 1.679 1.032.775-1.29-1.679-1.032zm94.534 0l-1.679 1.032.775 1.29 1.679-1.032-.775-1.29zm-98.021-2.064l-.775 1.29 1.679 1.032.775-1.29-1.679-1.032zm101.508 0l-1.679 1.032.775 1.29 1.679-1.032-.775-1.29zm-104.866-2.064l-.775 1.29 1.679 1.032.775-1.29-1.679-1.032zm108.353 0l-1.679 1.032.775 1.29 1.679-1.032-.775-1.29zm-111.84-1.936l-.775 1.291 1.679 1.032.775-1.29-1.679-1.033zm115.327-.129l-1.679 1.032.775 1.291 1.679-1.032-.129-.259-.388.259-.645-.388.387-.903zm3.1-1.806l-1.421.774.775 1.29 1.679-1.032-.129-.258-.259.129-.645-.903zm-121.914-.129l-.775 1.29 1.679 1.032.775-1.29-1.679-1.032zm125.401-1.935l-1.421.774.775 1.29 1.679-1.032-.129-.258-.259.129-.645-.903zm-128.888-.129l-.775 1.29 1.679 1.032.775-1.29-1.679-1.032zm132.375-1.806l-1.421.774.775 1.29 1.679-1.032-.129-.258-.259.129-.645-.903zm-135.862-.258l-.775 1.29 1.679 1.032.775-1.29-1.679-1.032zm139.349-1.806l-1.421.774.775 1.29 1.679-1.032-.13-.258-.258.129-.645-.903zm-142.836-.258l-.775 1.29 1.679 1.032.775-1.29-1.679-1.032zm146.322-1.807l-1.42.774.775 1.291 1.679-1.033-.13-.258-.258.129-.646-.903zm-149.679-.129l-.775 1.29 1.679 1.033.774-1.291-1.678-1.032zm153.166-1.935l-1.42.774.775 1.29 1.679-1.032-.13-.258-.258.129-.646-.903zm-156.653-.129l-.775 1.29 1.679 1.032.774-1.29-1.678-1.032zm160.14-1.806l-1.42.774.775 1.29 1.678-1.032-.129-.258-.258.129-.646-.903zm-163.627-.258l-.775 1.29 1.679 1.032.775-1.29-1.679-1.032zm167.114-1.806l-1.42.774.775 1.29 1.678-1.032-.129-.258-.258.129-.646-.903zm-170.601-.258l-.775 1.29 1.679 1.032.775-1.29-1.679-1.032zm173.959-1.806l-1.421.774.775 1.29 1.679-1.032-.129-.258-.258.129-.646-.903zm-177.446-.258l-.775 1.29 1.679 1.032.775-1.29-1.679-1.032zm180.933-1.807l-1.421.774.775 1.291 1.679-1.033-.129-.258-.258.129-.646-.903zm-184.291-.258l-.775 1.29 1.679 1.033.775-1.291-1.679-1.032zm187.778-1.677l-1.421.774.775 1.29 1.679-1.032-.129-.258-.258.129-.646-.903zm-191.265-.258l-.775 1.29 1.679 1.032.775-1.29-1.679-1.032zm194.752-1.806l-1.421.774.775 1.29 1.679-1.032-.129-.258-.258.129-.646-.903zm-198.239-.258l-.775 1.29 1.679 1.032.775-1.29-1.679-1.032zm201.726-1.806l-1.421.774.775 1.29 1.679-1.032-.129-.258-.259.129-.645-.903zm-205.213-.258l-.775 1.29 1.679 1.032.775-1.29-1.679-1.032zm208.7-1.806l-1.421.903.775 1.29 1.679-1.032-.129-.258-.259.129-.645-1.032zm-212.187-.258l-.775 1.29 1.679 1.032.775-1.29-1.679-1.032zm215.674-1.678l-1.421.774.775 1.291 1.679-1.033-.129-.258-.259.129-.645-.903zm-219.161-.387l-.775 1.29 1.679 1.033.775-1.291-1.679-1.032zm222.518-1.677l-1.42.774.775 1.29 1.679-1.032-.13-.258-.258.129-.646-.903zm-225.875-.258l-.775 1.29 1.679 1.032.774-1.29-1.678-1.032zm229.362-1.806l-1.42.774.775 1.29 1.678-1.032-.129-.258-.258.129-.646-.903zm-232.849-.258l-.775 1.29 1.679 1.032.774-1.29-1.678-1.032zm236.336-1.806l-1.42.774.775 1.29 1.678-1.032-.129-.258-.258.129-.646-.903zm-239.823-.258l-.775 1.29 1.679 1.032.775-1.29-1.679-1.032zm243.31-1.677l-1.42.774.774 1.29 1.679-1.032-.129-.258-.258.129-.646-.903zm-246.797-.387l-.775 1.29 1.679 1.032.775-1.29-1.679-1.032zm250.284-1.678l-1.42.774.774 1.291 1.679-1.033-.129-.258-.258.129-.646-.903zm-253.771-.387l-.775 1.29 1.679 1.033.775-1.291-1.679-1.032zm257.258-1.677l-1.421.774.775 1.29 1.679-1.032-.129-.258-.258.129-.646-.903zm-260.745-.258l-.775 1.29 1.679 1.032.775-1.29-1.679-1.032zm264.232-1.677l-1.421.774.775 1.29 1.679-1.032-.129-.258-.258.129-.646-.903zm-267.59-.387l-.775 1.29 1.679 1.032.775-1.29-1.679-1.032zm271.077-1.677l-1.421.774.775 1.29 1.679-1.032-.129-.258-.258.129-.646-.903zm-274.564-.387l-.775 1.29 1.679 1.032.775-1.29-1.679-1.032zm277.922-1.677l-1.421.774.775 1.29 1.679-1.032-.129-.258-.259.129-.645-.903zm-281.409-.388l-.775 1.291 1.679 1.032.775-1.29-1.679-1.033zm284.896-1.677l-1.421.774.775 1.291 1.679-1.033-.129-.258-.259.129-.645-.903zm-288.383-.387l-.775 1.29 1.679 1.032.775-1.29-1.679-1.032zm291.87-1.548l-1.421.774.775 1.29 1.679-1.032-.129-.258-.259.129-.645-.903zm-295.357-.387l-.775 1.29 1.679 1.032.775-1.29-1.679-1.032zm-3.487-2.064l-1.42.903 2.454 1.419.774-1.29-1.42-.774-.129.258-.259-.516zm302.072-.645l-.775 1.29.259.129-.646.387.775 1.29 2.841-1.677-.387-.258-1.292.774-.775-1.29.517-.258-.517-.387zm-298.585-1.419l-1.679 1.032.775 1.29 1.679-1.032-.775-1.29zm295.098-.516l-.775 1.29 1.679 1.032.775-1.29-1.679-1.032zm-291.611-1.42l-1.679 1.033.775 1.29 1.679-1.032-.775-1.291zm288.124-.645l-.774 1.291 1.678 1.032.775-1.291-1.679-1.032zm-284.637-1.419l-1.679 1.032.775 1.29 1.679-1.032-.775-1.29zm281.15-.645l-.774 1.29 1.678 1.032.775-1.29-1.679-1.032zm-277.663-1.419l-1.679 1.032.775 1.29 1.679-1.032-.775-1.29zm274.177-.516l-.775 1.29 1.679 1.032.774-1.29-1.678-1.032zm-270.69-1.419l-1.679 1.032.775 1.29 1.679-1.032-.775-1.29zm267.203-.645l-.775 1.29 1.679 1.032.774-1.29-1.678-1.032zm-263.716-1.419l-1.679 1.032.775 1.29 1.679-1.032-.775-1.29zm260.229-.516l-.775 1.29 1.679 1.032.775-1.29-1.679-1.032zm-256.742-1.42l-1.679 1.033.775 1.29 1.679-1.032-.775-1.291zm253.255-.645l-.775 1.291 1.679 1.032.775-1.291-1.679-1.032zm-249.768-1.419l-1.679 1.032.775 1.29 1.679-1.032-.775-1.29zm246.281-.516l-.775 1.29 1.679 1.032.775-1.29-1.679-1.032zm-242.794-1.419l-1.679 1.032.775 1.29 1.679-1.032-.775-1.29zm239.307-.645l-.775 1.29 1.679 1.032.775-1.29-1.679-1.032zm-235.82-1.419l-1.679 1.032.775 1.29 1.679-1.032-.775-1.29zm232.333-.645l-.775 1.29 1.679 1.032.775-1.29-1.679-1.032zm-228.846-1.419l-1.679 1.032.775 1.29 1.679-1.032-.775-1.29zm225.359-.516l-.775 1.29 1.679 1.032.775-1.29-1.679-1.032zm-221.872-1.42l-1.679 1.033.775 1.29 1.678-1.032-.774-1.291zm218.385-.645l-.775 1.29 1.679 1.033.775-1.291-1.679-1.032zm-214.898-1.419l-1.679 1.032.775 1.29 1.678-1.032-.774-1.29zm211.411-.516l-.775 1.29 1.679 1.032.775-1.29-1.679-1.032zm-207.925-1.419l-1.678 1.032.774 1.29 1.679-1.032-.775-1.29zm204.438-.645l-.775 1.29 1.679 1.032.775-1.29-1.679-1.032zM367.29 681.76l-1.808 1.032.775 1.29 1.679-1.032-.646-1.29zm197.464-.516l-.775 1.29 1.679 1.032.775-1.29-1.679-1.032zm-193.977-1.419l-1.679 1.032.775 1.29 1.679-1.032-.775-1.29zm190.49-.645l-.775 1.29 1.679 1.032.775-1.29-1.679-1.032zm-187.003-1.42l-1.033.645-.387.646-.259-.129.646 1.161 1.679-1.032-.646-1.291zm183.516-.645l-.775 1.29 1.679 1.033.775-1.291-1.679-1.032zm-180.029-1.29l-1.679 1.032.775 1.29 1.679-1.032-.775-1.29zm176.542-.645l-.774 1.29 1.678 1.032.775-1.29-1.679-1.032zm-173.055-1.419l-1.679 1.032.775 1.29 1.679-1.032-.775-1.29zm3.487-2.064l-1.679 1.032.775 1.29 1.679-1.032-.775-1.29zm3.358-1.935l-1.55.903.775 1.29 1.679-1.032-.646-1.032-.258-.129zM562.559 459.857l-.517.903-1.291-.774-.259.129.775 1.29 1.679-1.032-.387-.516zm3.228-2.709l-1.678 1.032.774 1.29 1.679-1.032-.775-1.29zm2.713-2.838l-.775 1.29.258.129-.646.387.775 1.29 2.841-1.677-2.453-1.419zm-3.358-1.935l-.775 1.29 1.679 1.032.775-1.29-1.679-1.032zm-3.487-2.065l-.775 1.29 1.679 1.033.775-1.291-1.679-1.032zm-3.487-1.935l-.775 1.29 1.679 1.032.775-1.29-1.679-1.032zm-3.487-2.064l-.775 1.29 1.679 1.032.775-1.29-1.679-1.032zm-3.487-1.935l-.775 1.29 1.679 1.032.775-1.29-1.679-1.032zm-3.487-2.064l-.775 1.29 1.679 1.032.775-1.29-1.679-1.032zm-3.487-2.065l-.775 1.29 1.679 1.033.775-1.291-1.679-1.032zm-3.487-1.935l-.775 1.29 1.679 1.032.775-1.29-1.679-1.032zm-3.487-2.064l-.775 1.29 1.679 1.032.775-1.29-1.679-1.032zm-3.487-1.935l-.775 1.29 1.679 1.032.775-1.29-1.679-1.032zm-3.487-2.064l-.774 1.29 1.678 1.032.775-1.29-1.679-1.032zm-3.487-1.936l-.774 1.29 1.678 1.033.775-1.291-1.679-1.032zm-3.486-2.064l-.775 1.29 1.679 1.032.774-1.29-1.678-1.032zm-3.487-2.064l-.775 1.29 1.679 1.032.774-1.29-1.678-1.032zm-3.487-1.935l-.775 1.29 1.679 1.032.775-1.29-1.679-1.032zm-3.487-2.065l-.775 1.291 1.679 1.032.775-1.29-1.679-1.033zm-3.487-1.935l-.775 1.29 1.679 1.033.775-1.291-1.679-1.032zm-3.487-2.064l-.775 1.29 1.679 1.032.775-1.29-1.679-1.032zm-3.487-1.935l-.775 1.29 1.679 1.032.775-1.29-1.679-1.032zm-3.487-2.064l-.775 1.29 1.679 1.032.775-1.29-1.679-1.032zm-3.487-2.065l-.775 1.291 1.679 1.032.775-1.29-1.679-1.033zm-3.487-1.935l-.775 1.29 1.679 1.033.775-1.291-1.679-1.032zm-3.487-2.064l-.775 1.29 1.679 1.032.775-1.29-1.679-1.032zm-3.487-1.935l-.775 1.29 1.679 1.032.775-1.29-1.679-1.032zm-131.341-1.419l-1.421.903 1.55.903.646-.387-.775-1.419zm127.854-.645l-.775 1.29 1.679 1.032.775-1.29-1.679-1.032zm-124.367-1.419l-1.679 1.032.775 1.29 1.679-1.032-.775-1.29zm120.88-.517l-.775 1.291 1.679 1.032.775-1.29-1.679-1.033zm-117.393-1.419l-1.679 1.032.775 1.291 1.679-1.033-.775-1.29zm113.906-.645l-.774 1.29 1.678 1.032.775-1.29-1.679-1.032zm-110.419-1.419l-1.679 1.032.775 1.29 1.679-1.032-.775-1.29zm106.932-.516l-.774 1.29 1.678 1.032.775-1.29-1.679-1.032zm-103.445-1.419l-1.679 1.032.775 1.29 1.679-1.032-.775-1.29zm100.088-.645l-.775 1.29 1.679 1.032.775-1.29-1.679-1.032zm-96.601-1.419l-1.679 1.032.775 1.29 1.679-1.032-.775-1.29zm93.114-.645l-.775 1.29 1.679 1.032.775-1.29-1.679-1.032zm-89.627-1.419l-1.679 1.032.775 1.29 1.679-1.032-.775-1.29zm86.14-.517l-.775 1.291 1.679 1.032.775-1.29-1.679-1.033zm-82.653-1.419l-1.679 1.032.775 1.291 1.678-1.033-.774-1.29zm79.166-.645l-.775 1.29 1.679 1.032.775-1.29-1.679-1.032zm-75.68-1.419l-1.678 1.032.774 1.29 1.679-1.032-.775-1.29zm72.193-.516l-.775 1.29 1.679 1.032.775-1.29-1.679-1.032zm-68.706-1.419l-1.678 1.032.774 1.29 1.679-1.032-.775-1.29zm65.219-.645l-.775 1.29 1.679 1.032.775-1.29-1.679-1.032zm-61.732-1.419l-1.679 1.032.775 1.29 1.679-1.032-.775-1.29zm58.245-.516l-.775 1.29 1.679 1.032.775-1.29-1.679-1.032zm-54.758-1.42l-1.679 1.033.775 1.29 1.679-1.032-.775-1.291zm51.271-.645l-.775 1.291 1.679 1.032.775-1.29-1.679-1.033zm-47.784-1.419l-1.679 1.032.775 1.291 1.679-1.033-.775-1.29zm44.297-.645l-.775 1.29 1.679 1.032.775-1.29-1.679-1.032zm-40.81-1.419l-1.808 1.032.775 1.29 1.679-1.032-.646-1.29zm37.323-.516l-.775 1.29 1.679 1.032.775-1.29-1.679-1.032zm-33.836-1.419l-1.679 1.032.775 1.29 1.679-1.032-.775-1.29zm30.349-.645l-.775 1.29 1.679 1.032.775-1.29-1.679-1.032zm-26.862-1.419l-1.679 1.032.775 1.29 1.679-1.032-.775-1.29zm23.375-.516l-.774 1.29 1.678 1.032.775-1.29-1.679-1.032zm-19.888-1.42l-1.679 1.033.775 1.29 1.679-1.032-.775-1.291zm16.401-.645l-.774 1.291 1.678 1.032.775-1.29-1.679-1.033zm-12.914-1.419l-1.679 1.032.775 1.29 1.679-1.032-.775-1.29zm9.428-.516l-.775 1.29 1.679 1.032.774-1.29-1.678-1.032zm-5.941-1.419l-1.808.903.775 1.29 1.679-1.032-.646-1.161zm2.454-.645l-.775 1.29 1.679 1.032.775-1.29L418.82 368z" fill="#fff" fill-opacity=".1"/><path d="M562.3 459.212l-1.42.903 1.162.645.517-.903-.259-.645z" fill="#4756E2"/><path d="M506.768 491.724l-1.679 1.032.775 1.29 1.679-1.032-.775-1.29zm3.487-2.065l-1.679 1.032.775 1.291 1.679-1.032-.775-1.291zm3.487-2.064l-1.679 1.032.775 1.29 1.679-1.032-.775-1.29zm3.357-1.935l-1.678 1.032.774 1.29 1.679-1.032-.775-1.29zm3.487-2.064l-1.678 1.032.774 1.29 1.679-1.032-.775-1.29zm3.487-2.064l-1.679 1.032.775 1.29 1.679-1.032-.775-1.29zm3.487-1.936l-1.679 1.032.775 1.291 1.679-1.033-.775-1.29zm3.487-2.064l-1.679 1.032.775 1.29 1.679-1.032-.775-1.29zm3.487-2.064l-1.679 1.032.775 1.29 1.679-1.032-.775-1.29zm3.487-2.064l-1.679 1.032.775 1.29 1.679-1.032-.775-1.29zm3.358-1.935l-1.679 1.032.775 1.29 1.679-1.032-.775-1.29zm3.487-2.065l-1.679 1.032.775 1.291 1.679-1.033-.775-1.29zm3.487-2.064l-1.679 1.032.775 1.29 1.679-1.032-.775-1.29zm3.487-2.064l-1.679 1.032.775 1.29 1.679-1.032-.775-1.29zm3.487-1.935l-1.679 1.032.775 1.29 1.679-1.032-.775-1.29zm3.487-2.065l-1.679 1.033.775 1.29 1.678-1.032-.774-1.291zM591.875 475.21l-1.55.903-.129.258.646 1.161 1.42-.774.129-.129h.259l-.775-1.419zm51.271-.516l-.775 1.29 1.679 1.032.775-1.29-1.679-1.032zm-47.784-1.419l-1.679 1.032.775 1.29 1.679-1.032-.775-1.29zm44.297-.645l-.775 1.29 1.679 1.032.775-1.29-1.679-1.032zm-40.81-1.42l-1.679 1.033.775 1.29 1.679-1.032-.775-1.291zm37.323-.645l-.775 1.291 1.679 1.032.775-1.29-1.679-1.033zm-33.836-1.29l-1.679 1.032.775 1.291 1.679-1.033-.775-1.29zm30.349-.645l-.775 1.29 1.679 1.032.775-1.29-1.679-1.032zm-26.862-1.419l-1.679 1.032.775 1.29 1.679-1.032-.775-1.29zm23.375-.645l-.775 1.29 1.679 1.032.775-1.29-1.679-1.032zm-19.888-1.419l-1.679 1.032.775 1.29 1.678-1.032-.774-1.29zm16.401-.516l-.775 1.29 1.679 1.032.775-1.29-1.679-1.032zm-12.914-1.419l-1.679 1.032.774 1.29 1.679-1.032-.774-1.29zm9.427-.645l-.775 1.29 1.679 1.032.775-1.29-1.679-1.032zm-5.941-1.42l-1.678 1.033.774 1.29 1.679-1.032-.775-1.291zm2.454-.516l-.775 1.291 1.679 1.032.775-1.29-1.679-1.033z" fill="#fff" fill-opacity=".1"/><path d="M592.391 476.5l-.129.129.129-.129zm-2.066-.387l-.258.129.129.129.129-.258z" fill="#4756E2"/><path d="M620.416 635.96l-1.679 1.032.258.516 1.679-1.032-.258-.516zm3.487-2.064l-1.679 1.032.258.516 1.679-1.032-.258-.516zm3.487-2.064l-1.679 1.032.258.387 1.679-1.032-.258-.387zm3.487-1.936l-1.679 1.033.258.387 1.679-1.032-.258-.388zm3.487-2.064l-1.679 1.032.258.387 1.679-1.032-.258-.387zm3.487-1.935l-1.679 1.032.258.387 1.679-1.032-.258-.387zm3.487-2.064l-.129.129-1.55.903.258.387 1.679-1.032-.258-.387zm3.228-2.451c-.516.516-1.033.903-1.549 1.29l.258.387 1.679-1.032-.388-.645zm3.1-2.581l-1.679 1.032.775 1.291 1.679-1.033-.775-1.29zm3.487-2.064l-1.679 1.032.775 1.29 1.679-1.032-.775-1.29zm3.487-1.935l-1.679 1.032.775 1.29 1.42-.774-.516-.258.387-.645-.387-.645zm3.487-2.064l-1.679 1.032.775 1.29 1.679-1.032-.775-1.29zm3.487-2.064l-1.679 1.032.775 1.29 1.678-1.032-.774-1.29zm3.487-2.065l-1.679 1.032.774 1.291 1.679-1.033-.774-1.29zm3.357-1.935l-1.679 1.032.775 1.29 1.679-1.032-.775-1.29zm3.487-2.064l-1.679 1.032.775 1.29 1.679-1.032-.775-1.29zm3.487-2.064l-1.679 1.032.775 1.29 1.679-1.032-.775-1.29zm3.487-2.065l-1.679 1.033.775 1.29 1.679-1.032-.775-1.291zm3.487-1.935l-1.679 1.032.775 1.291 1.679-1.033-.775-1.29zm3.487-2.064l-1.679 1.032.775 1.29 1.679-1.032-.775-1.29zm3.487-2.064l-1.679 1.032.775 1.29 1.679-1.032-.775-1.29zm3.358-1.935l-1.679 1.032.775 1.29 1.679-1.032-.775-1.29zm3.487-2.065l-1.679 1.033.775 1.29 1.679-1.032-.775-1.291zm3.487-2.064l-1.679 1.032.775 1.291 1.678-1.033-.774-1.29zm3.486-2.064l-1.678 1.032.774 1.29 1.679-1.032-.775-1.29zm3.487-1.935l-1.678 1.032.774 1.29 1.679-1.032-.775-1.29zm3.487-2.064l-1.679 1.032.775 1.29 1.679-1.032-.775-1.29zm3.487-2.065l-1.679 1.033.775 1.29 1.679-1.032-.775-1.291zm3.358-2.064l-1.679 1.032.775 1.29 1.679-1.032-.775-1.29zm3.487-1.935l-1.679 1.032.775 1.29 1.679-1.032-.775-1.29zm3.487-2.064l-1.679 1.032.775 1.29 1.679-1.032-.775-1.29zm3.487-2.064l-1.679 1.032.775 1.29 1.679-1.032-.775-1.29zm3.487-2.065l-1.679 1.033.775 1.29 1.679-1.032-.775-1.291zm3.487-1.935l-1.679 1.032.775 1.29 1.679-1.032-.775-1.29zm3.487-2.064l-1.679 1.032.775 1.29 1.679-1.032-.775-1.29zm3.487-2.064l-1.679 1.032.775 1.29 1.679-1.032-.775-1.29zm3.357-2.064l-1.678 1.032.774 1.29 1.679-1.032-.775-1.29zm3.487-1.936l-1.679 1.033.775 1.29 1.679-1.032-.775-1.291zm3.487-2.064l-1.679 1.032.775 1.29 1.679-1.032-.775-1.29zm3.487-2.064l-1.679 1.032.775 1.29 1.679-1.032-.775-1.29zm3.487-1.935l-1.679 1.032.775 1.29 1.679-1.032-.775-1.29zm3.487-2.064l-1.679 1.032.775 1.29 1.679-1.032-.775-1.29zm3.487-2.065l-1.679 1.032.775 1.291 1.679-1.033-.775-1.29zm2.841-2.838l-.775 1.29.259.129-.646.387.775 1.29L771 548.36l-2.454-1.419zm-3.487-2.064l-.775 1.29 1.679 1.032.775-1.29-1.679-1.032zm-3.487-1.935l-.775 1.29 1.679 1.032.775-1.29-1.679-1.032zm-3.487-2.065l-.774 1.291 1.678 1.032.775-1.29-1.679-1.033zm-3.487-1.935l-.774 1.29 1.679 1.033.774-1.291-1.679-1.032zm-3.486-2.064l-.775 1.29 1.679 1.032.774-1.29-1.678-1.032zm-3.487-1.935l-.775 1.29 1.679 1.032.775-1.29-1.679-1.032zm-3.487-2.064l-.775 1.29 1.679 1.032.775-1.29-1.679-1.032zm-3.487-1.936l-.775 1.291 1.679 1.032.775-1.29-1.679-1.033zm-3.487-2.064l-.775 1.29 1.679 1.032.775-1.29-1.679-1.032zm-3.487-2.064l-.775 1.29 1.679 1.032.775-1.29-1.679-1.032zm-3.487-1.935l-.775 1.29 1.679 1.032.775-1.29-1.679-1.032zm-3.487-2.064l-.775 1.29 1.679 1.032.775-1.29-1.679-1.032zm-3.487-1.936l-.775 1.291 1.679 1.032.775-1.29-1.679-1.033zm-3.487-2.064l-.775 1.29 1.679 1.032.775-1.29-1.679-1.032zm-3.487-1.935l-.775 1.29 1.679 1.032.775-1.29-1.679-1.032zm-3.487-2.064l-.775 1.29 1.679 1.032.775-1.29-1.679-1.032zm-3.487-2.064l-.775 1.29 1.679 1.032.775-1.29-1.679-1.032zm-3.487-1.936l-.774 1.291 1.678 1.032.775-1.29-1.679-1.033zm-173.055-1.419l-.258.129.516.258-.258-.387zm169.568-.645l-.774 1.29 1.678 1.032.775-1.29-1.679-1.032zm-166.081-1.419l-1.679 1.032.775 1.29 1.679-1.032-.775-1.29zm162.595-.516l-.775 1.29 1.679 1.032.774-1.29-1.678-1.032zM539.7 505.399l-1.679 1.032.775 1.29 1.679-1.032-.775-1.29zm155.621-.645l-.775 1.29 1.679 1.032.775-1.29-1.679-1.032zm-152.134-1.419l-1.679 1.032.775 1.29 1.679-1.032-.775-1.29zm148.647-.516l-.775 1.29 1.679 1.032.775-1.29-1.679-1.032zm-145.289-1.42l-1.679 1.033.775 1.29 1.679-1.032-.775-1.291zm141.802-.645l-.775 1.291 1.679 1.032.775-1.29-1.679-1.033zm-138.315-1.419l-1.679 1.032.775 1.291 1.679-1.033-.775-1.29zm134.828-.645l-.775 1.29 1.679 1.032.775-1.29-1.679-1.032zm-131.341-1.419l-1.679 1.032.775 1.29 1.678-1.032-.774-1.29zm127.854-.516l-.775 1.29 1.679 1.032.775-1.29-1.679-1.032zm-124.367-1.419l-1.679 1.032.775 1.29 1.678-1.032-.774-1.29zm120.88-.645l-.775 1.29 1.679 1.032.775-1.29-1.679-1.032zm-117.394-1.419l-1.678 1.032.774 1.29 1.679-1.032-.775-1.29zm114.036-.516l-.775 1.29 1.679 1.032.775-1.29-1.679-1.032zm-110.549-1.42l-1.678 1.033.774 1.29 1.679-1.032-.775-1.291zm107.062-.645l-.775 1.291 1.679 1.032.775-1.29-1.679-1.033zm-103.575-1.419l-1.679 1.032.775 1.29 1.679-1.032-.775-1.29zm100.088-.516l-.775 1.29 1.679 1.032.775-1.29-1.679-1.032zm-96.601-1.419l-1.679 1.032.775 1.29 1.679-1.032-.775-1.29zm93.114-.645l-.775 1.29 1.679 1.032.775-1.29-1.679-1.032zm-89.627-1.419l-1.679 1.032.775 1.29 1.679-1.032-.775-1.29zm86.14-.645l-.774 1.29 1.678 1.032.775-1.29-1.679-1.032zm-82.653-1.29l-1.679 1.032.775 1.29 1.679-1.032-.775-1.29zm79.166-.645l-.774 1.29 1.678 1.032.775-1.29-1.679-1.032zm-75.679-1.42l-1.679 1.033.775 1.29 1.679-1.032-.775-1.291zm72.193-.645l-.775 1.291 1.679 1.032.774-1.291-1.678-1.032zm-68.706-1.419l-1.679 1.032.775 1.29 1.679-1.032-.775-1.29zm65.219-.516l-.775 1.29 1.679 1.032.775-1.29-1.679-1.032zm-61.732-1.419l-1.679 1.032.775 1.29 1.679-1.032-.775-1.29zm58.245-.645l-.775 1.29 1.679 1.032.775-1.29-1.679-1.032z" fill="#fff" fill-opacity=".1"/><path d="M524.073 768.199l-.645-.387.516-.775-.129-.258 1.421-.774.775 1.291-1.938.903zm-2.324-1.42l-1.679-1.032.775-1.29 1.679 1.032-.775 1.29zm5.94-.645l-.774-1.29 1.678-1.032.775 1.29-1.679 1.032zm-9.427-1.419l-1.679-1.032.775-1.29 1.679 1.032-.775 1.29zm12.914-.645l-.774-1.29 1.678-1.032.775 1.29-1.679 1.032zm-16.401-1.419l-1.679-1.032.775-1.29 1.679 1.032-.775 1.29zm19.888-.645l-.775-1.29 1.679-1.032.775 1.29-1.679 1.032zm-23.375-1.419l-1.679-1.032.775-1.29 1.679 1.032-.775 1.29zm26.862-.645l-.775-1.29 1.679-1.032.775 1.29-1.679 1.032zm-30.349-1.419l-1.679-1.032.775-1.291 1.679 1.032-.775 1.291zm33.707-.516l-.775-1.291 1.679-1.032.775 1.29-1.679 1.033zm-37.065-1.42l-1.679-1.032.775-1.29 1.679 1.032-.775 1.29zm40.552-.645l-.775-1.29 1.679-1.032.775 1.29-1.679 1.032zm-44.039-1.419l-1.679-1.032.775-1.29 1.679 1.032-.775 1.29zm47.526-.645l-.775-1.29 1.679-1.032.775 1.29-1.679 1.032zm-51.013-1.419l-1.679-1.032.775-1.29 1.679 1.032-.775 1.29zm54.5-.645l-.775-1.29 1.679-1.032.775 1.29-1.679 1.032zm-57.987-1.419l-1.678-1.032.774-1.29 1.679 1.032-.775 1.29zm61.474-.516l-.775-1.29 1.679-1.032.775 1.29-1.679 1.032zm-64.961-1.548l-1.678-1.033.774-1.29 1.679 1.032-.775 1.291zm68.448-.516l-.775-1.291 1.679-1.032.775 1.29-1.679 1.033zm-71.805-1.42l-1.679-1.032.775-1.29 1.679 1.032-.775 1.29zm75.292-.645l-.775-1.29 1.679-1.032.775 1.29-1.679 1.032zm-78.779-1.419l-1.679-1.032.775-1.29 1.679 1.032-.775 1.29zm82.136-.516l-.774-1.29 1.678-1.032.775 1.29-1.679 1.032zm-85.623-1.548l-1.679-1.032.775-1.29 1.679 1.032-.775 1.29zm89.11-.516l-.774-1.29 1.678-1.032.775 1.29-1.679 1.032zm-92.597-1.548l-1.679-1.032.775-1.29 1.679 1.032-.775 1.29zm96.084-.516l-.775-1.29 1.679-1.033.775 1.291-1.679 1.032zm-99.571-1.548l-1.679-1.033.775-1.29 1.679 1.032-.775 1.291zm103.058-.517l-.775-1.29 1.679-1.032.775 1.29-1.679 1.032zm-106.545-1.419l-1.679-1.032.775-1.29 1.679 1.032-.775 1.29zm110.032-.516l-.775-1.29 1.679-1.032.775 1.29-1.679 1.032zm-113.39-1.548l-1.679-1.032.775-1.29 1.679 1.032-.775 1.29zm116.877-.516l-.775-1.29 1.679-1.032.775 1.29-1.679 1.032zm-120.364-1.548l-1.679-1.032.775-1.29 1.679 1.032-.775 1.29zm123.851-.516l-.775-1.29 1.679-1.032.775 1.29-1.679 1.032zm-127.338-1.548l-1.679-1.032.775-1.291 1.679 1.033-.775 1.29zm130.825-.516l-.775-1.29 1.679-1.033.775 1.291-1.679 1.032zm-134.312-1.548l-1.678-1.033.774-1.29 1.679 1.032-.775 1.291zm137.67-.388l-.775-1.29 1.679-1.032.775 1.29-1.679 1.032zm-141.157-1.548l-1.678-1.032.774-1.29 1.679 1.032-.775 1.29zm144.644-.516l-.775-1.29 1.679-1.032.775 1.29-1.679 1.032zm-148.001-1.548l-1.679-1.032.775-1.29 1.679 1.032-.775 1.29zm151.488-.516l-.775-1.29 1.679-1.032.775 1.29-1.679 1.032zm-154.975-1.548l-1.679-1.032.775-1.29 1.679 1.032-.775 1.29zm158.462-.516l-.775-1.29 1.679-1.032.774 1.29-1.678 1.032zm-161.949-1.548l-1.679-1.032.775-1.291 1.679 1.033-.775 1.29zm165.435-.387l-.774-1.29 1.679-1.033.774 1.291-1.679 1.032zm-168.922-1.678l-1.679-1.032.775-1.29 1.679 1.032-.775 1.29zm172.409-.387l-.774-1.29 1.678-1.032.775 1.29-1.679 1.032zm-175.896-1.677l-1.679-1.032.775-1.29 1.679 1.032-.775 1.29zm179.383-.387l-.774-1.29 1.678-1.032.775 1.29-1.679 1.032zm-182.87-1.548l-1.679-1.032.775-1.29 1.679 1.032-.775 1.29zm186.228-.516l-.775-1.29 1.679-1.032.775 1.29-1.679 1.032zm-189.586-1.548l-1.679-1.032.775-1.29 1.679 1.032-.775 1.29zm193.073-.387l-.775-1.29 1.679-1.032.775 1.29-1.679 1.032zm-196.56-1.677l-1.679-1.032.775-1.291 1.679 1.033-.775 1.29zm200.047-.387l-.775-1.291 1.679-1.032.775 1.291-1.679 1.032zm-203.534-1.678l-1.679-1.032.775-1.29 1.679 1.032-.775 1.29zm207.021-.387l-.775-1.29 1.679-1.032.775 1.29-1.679 1.032zm-210.508-1.677l-1.678-1.032.774-1.29 1.679 1.032-.775 1.29zm213.995-.387l-.775-1.29 1.679-1.032.775 1.29-1.679 1.032zm-217.482-1.548l-1.678-1.032.774-1.29 1.679 1.032-.775 1.29zm220.969-.387l-.775-1.29 1.679-1.032.775 1.29-1.679 1.032zm-224.455-1.677l-1.679-1.032.775-1.29 1.678 1.032-.774 1.29zm227.942-.387l-.775-1.29 1.679-1.032.775 1.29-1.679 1.032zm-231.3-1.677l-1.679-1.032.775-1.291 1.679 1.032-.775 1.291zm234.787-.387l-.775-1.291 1.679-1.032.775 1.29-1.679 1.033zm-238.274-1.678l-1.679-1.032.775-1.29 1.679 1.032-.775 1.29zm241.631-.258l-.774-1.29 1.679-1.032.774 1.29-1.679 1.032zm-245.118-1.806l-1.679-1.032.775-1.29 1.679 1.032-.775 1.29zm248.605-.258l-.774-1.29 1.678-1.032.775 1.29-1.679 1.032zm-252.092-1.677l-1.679-1.032.775-1.29 1.679 1.032-.775 1.29zm255.579-.387l-.774-1.29 1.678-1.032.775 1.29-1.679 1.032zm-259.066-1.677l-1.679-1.032.775-1.29 1.679 1.032-.775 1.29zm262.553-.387l-.775-1.29 1.679-1.032.775 1.29-1.679 1.032zm-265.911-1.677l-1.679-1.033.775-1.29 1.679 1.032-.775 1.291zm269.398-.258l-.775-1.291 1.679-1.032.775 1.29-1.679 1.033zm-272.885-1.807l-1.679-1.032.775-1.29 1.679 1.032-.775 1.29zm276.372-.258l-.775-1.29 1.679-1.032.775 1.29-1.679 1.032zm-279.859-1.806l-1.679-1.032.775-1.29 1.679 1.032-.775 1.29zm283.346-.258l-.775-1.29 1.679-1.032.775 1.29-1.679 1.032zm-286.833-1.677l-1.678-1.032.774-1.29 1.679 1.032-.775 1.29zm290.191-.387l-.775-1.29 1.679-1.032.775 1.29-1.679 1.032zm-293.678-1.677l-1.678-1.032.774-1.29 1.679 1.032-.775 1.29zm297.165-.258l-.775-1.29 1.679-1.032.775 1.29-1.679 1.032zm-300.651-1.806l-1.679-1.033.775-1.29 1.678 1.032-.774 1.291zm304.138-.258l-.775-1.291 1.679-1.032.775 1.29-1.679 1.033zm-307.496-1.807l-1.679-1.032.775-1.29 1.679 1.032-.775 1.29zm310.983-.258l-.775-1.29 1.679-1.032.775 1.29-1.679 1.032zm-314.47-1.806l-1.679-1.032.775-1.29 1.679 1.032-.775 1.29zm317.957-.258l-.775-1.29 1.679-1.032.774 1.29-1.678 1.032zm-321.444-1.806l-1.679-1.032.775-1.29 1.679 1.032-.775 1.29zm324.931-.129l-.775-1.29 1.679-1.032.774 1.29-1.678 1.032zm-328.418-1.806l-1.679-1.032.775-1.291 1.679 1.033-.775 1.29zm331.905-.258l-.775-1.29 1.678-1.033.775 1.291-1.678 1.032zm-335.392-1.806l-1.679-1.033.775-1.29 1.679 1.032-.775 1.291zm338.749-.259l-.775-1.29 1.679-1.032.775 1.29-1.679 1.032zm-342.236-1.806l-1.679-1.032.775-1.29 1.679 1.032-.775 1.29zm345.723-.258l-.775-1.29 1.679-1.032.775 1.29-1.679 1.032zm-349.081-1.806l-1.679-1.032.775-1.29 1.679 1.032-.775 1.29zm352.568-.129l-.775-1.29 1.679-1.032.775 1.29-1.679 1.032zm-356.055-1.935l-1.679-1.032.775-1.29 1.679 1.032-.775 1.29zm359.542-.129l-.775-1.29 1.679-1.032.775 1.29-1.679 1.032zm-363.029-1.806l-1.678-1.032.774-1.291 1.679 1.033-.775 1.29zm366.516-.258l-.775-1.29 1.679-1.033.775 1.291-1.679 1.032zm-370.002-1.807l-1.679-1.032.775-1.29 1.678 1.032-.774 1.29zm373.489-.129l-.775-1.29 1.679-1.032.775 1.29-1.679 1.032zm-376.976-1.935l-1.679-1.032.775-1.29 1.678 1.032-.774 1.29zm380.463-.129l-.775-1.29 1.679-1.032.775 1.29-1.679 1.032zm-383.821-1.935l-1.679-1.032.775-1.29 1.679 1.032-.775 1.29zm387.308-.129l-.775-1.29.646-.387-1.033-.645.774-1.29 1.679 1.032-.258.387.646 1.161-1.679 1.032zm-387.05-1.935l-.775-1.29 1.679-1.032.775 1.29-1.679 1.032zm383.95-1.419l-1.679-1.032.775-1.291 1.679 1.033-.775 1.29zm-380.463-.516l-.775-1.29 1.679-1.033.775 1.291-1.679 1.032zm376.976-1.419l-1.679-1.033.775-1.29 1.679 1.032-.775 1.291zm-373.489-.646l-.775-1.29 1.679-1.032.775 1.29-1.679 1.032zm370.132-1.419l-1.679-1.032.775-1.29 1.678 1.032-.774 1.29zm-366.645-.516l-.775-1.29 1.679-1.032.775 1.29-1.679 1.032zm363.158-1.419l-1.679-1.032.775-1.29 1.678 1.032-.774 1.29zm-359.671-.645l-.775-1.29 1.679-1.032.775 1.29-1.679 1.032zm356.184-1.419l-1.679-1.032.775-1.29 1.679 1.032-.775 1.29zm-352.697-.516l-.775-1.29 1.679-1.032.775 1.29-1.679 1.032zm349.21-1.419l-1.679-1.032.775-1.291 1.679 1.033-.775 1.29zm-345.723-.645l-.775-1.29 1.679-1.033.775 1.291-1.679 1.032zm342.236-1.419l-1.679-1.033.775-1.29 1.679 1.032-.775 1.291zm-338.879-.517l-.774-1.29 1.679-1.032.774 1.29-1.679 1.032zm335.392-1.419l-1.679-1.032.775-1.29 1.679 1.032-.775 1.29zm-331.905-.645l-.774-1.29 1.678-1.032.775 1.29-1.679 1.032zm328.418-1.419l-1.679-1.032.775-1.29 1.679 1.032-.775 1.29zm-324.931-.645l-.775-1.29 1.679-1.032.775 1.29-1.679 1.032zm321.444-1.419l-1.679-1.032.775-1.29 1.679 1.032-.775 1.29zm-317.957-.516l-.775-1.29 1.679-1.032.775 1.29-1.679 1.032zm314.47-1.419l-1.679-1.032.775-1.291 1.679 1.033-.775 1.29zm-310.983-.645l-.775-1.291 1.679-1.032.775 1.291-1.679 1.032zm307.496-1.42l-1.679-1.032.775-1.29 1.679 1.032-.775 1.29zm-304.009-.516l-.775-1.29 1.679-1.032.775 1.29-1.679 1.032zm300.522-1.419l-1.679-1.032.775-1.29 1.679 1.032-.775 1.29zm-297.035-.645l-.775-1.29 1.679-1.032.775 1.29-1.679 1.032zm293.548-1.419l-1.679-1.032.775-1.29 1.679 1.032-.775 1.29zm-290.061-.516l-.775-1.29 1.679-1.032.775 1.29-1.679 1.032zm286.574-1.419l-1.679-1.032.775-1.29 1.679 1.032-.775 1.29zm-283.087-.645l-.775-1.29 1.679-1.032.775 1.29-1.679 1.032zm279.6-1.419l-1.678-1.032.774-1.291 1.679 1.033-.775 1.29zm-276.113-.645l-.775-1.291 1.679-1.032.775 1.29-1.679 1.033zm272.627-1.42l-1.679-1.032.775-1.29 1.678 1.032-.774 1.29zm-269.14-.516l-.775-1.29 1.679-1.032.775 1.29-1.679 1.032zm265.653-1.419l-1.679-1.032.775-1.29 1.678 1.032-.774 1.29zm-262.166-.645l-.775-1.29 1.679-1.032.775 1.29-1.679 1.032zm258.679-1.419l-1.679-1.032.775-1.29 1.679 1.032-.775 1.29zm-255.192-.516l-.775-1.29 1.679-1.032.775 1.29-1.679 1.032zm251.705-1.419l-1.679-1.032.775-1.29 1.679 1.032-.775 1.29zm-248.218-.645l-.775-1.29 1.679-1.032.775 1.29-1.679 1.032zm244.731-1.419l-1.679-1.032.775-1.291 1.679 1.033-.775 1.29zm-241.244-.516l-.775-1.291 1.679-1.032.774 1.29-1.678 1.033zm237.757-1.42l-1.679-1.032.775-1.29 1.679 1.032-.775 1.29zm-234.27-.645l-.775-1.29 1.679-1.032.774 1.29-1.678 1.032zm230.783-1.419l-1.679-1.032.775-1.29 1.679 1.032-.775 1.29zm-227.297-.645l-.774-1.29 1.678-1.032.775 1.29-1.679 1.032zm223.81-1.419l-1.679-1.032.775-1.29 1.679 1.032-.775 1.29zm-220.323-.516l-.775-1.29 1.679-1.032.775 1.29-1.679 1.032zm216.836-1.419l-1.679-1.032.775-1.29 1.679 1.032-.775 1.29zm-213.349-.645l-.775-1.29 1.679-1.032.775 1.29-1.679 1.032zm209.862-1.419l-1.679-1.032.775-1.291 1.679 1.032-.775 1.291zm-206.375-.516l-.775-1.291 1.679-1.032.775 1.29-1.679 1.033zm202.888-1.42l-1.679-1.032.775-1.29 1.679 1.032-.775 1.29zm-199.401-.645l-.775-1.29 1.679-1.032.775 1.29-1.679 1.032zm195.914-1.419l-1.679-1.032.775-1.29 1.679 1.032-.775 1.29zm-192.427-.516l-.775-1.29 1.679-1.032.775 1.29-1.679 1.032zm188.94-1.419l-1.679-1.032.775-1.29 1.679 1.032-.775 1.29zm-185.453-.645l-.775-1.29 1.679-1.032.775 1.29-1.679 1.032zm181.966-1.419l-1.679-1.032.775-1.29 1.679 1.032-.775 1.29zm-178.479-.645l-.775-1.29 1.679-1.032.775 1.29-1.679 1.032zm175.122-1.419l-1.679-1.033.775-1.29 1.678 1.032-.774 1.291zm-171.635-.516l-.775-1.291 1.679-1.032.775 1.29-1.679 1.033zm168.148-1.42l-1.679-1.032.775-1.29 1.679 1.032-.775 1.29zm-164.661-.645l-.775-1.29 1.679-1.032.775 1.29-1.679 1.032zm161.174-1.419l-1.679-1.032.775-1.29 1.679 1.032-.775 1.29zm-157.687-.516l-.775-1.29 1.679-1.032.775 1.29-1.679 1.032zm154.2-1.419l-1.679-1.032.775-1.29 1.679 1.032-.775 1.29zm-150.713-.645l-.775-1.29 1.679-1.032.775 1.29-1.679 1.032zm147.226-1.419l-1.679-1.032.775-1.29 1.679 1.032-.775 1.29zm-143.868-.516l-.775-1.29 1.679-1.032.774 1.29-1.678 1.032zm140.381-1.419l-1.679-1.033.775-1.29 1.679 1.032-.775 1.291zm-136.895-.645l-.774-1.291 1.678-1.032.775 1.29-1.679 1.033zm133.408-1.42l-1.679-1.032.775-1.29 1.679 1.032-.775 1.29zm-129.921-.645l-.775-1.29 1.679-1.032.775 1.29-1.679 1.032zm126.434-1.419l-1.679-1.032.775-1.29 1.679 1.032-.775 1.29zm-122.947-.516l-.775-1.29 1.679-1.032.775 1.29-1.679 1.032zm119.46-1.419l-1.679-1.032.775-1.29 1.679 1.032-.775 1.29zm-115.973-.645l-.775-1.29 1.679-1.032.775 1.29-1.679 1.032zm112.486-1.419l-1.679-1.032.775-1.29 1.679 1.032-.775 1.29zm-108.999-.516l-.775-1.29 1.679-1.033.775 1.291-1.679 1.032zm105.512-1.419l-1.679-1.033.775-1.29 1.679 1.032-.775 1.291zm-102.025-.645l-.775-1.291 1.679-1.032.775 1.29-1.679 1.033zm98.538-1.42l-1.679-1.032.775-1.29 1.679 1.032-.775 1.29zm-95.051-.516l-.775-1.29 1.679-1.032.775 1.29-1.679 1.032zm91.564-1.419l-1.679-1.032.775-1.29 1.679 1.032-.775 1.29zm-88.077-.645l-.775-1.29 1.679-1.032.775 1.29-1.679 1.032zm84.59-1.419l-1.678-1.032.774-1.29 1.679 1.032-.775 1.29zm-81.103-.516l-.775-1.29 1.679-1.032.775 1.29-1.679 1.032zm77.616-1.419l-1.678-1.032.774-1.29 1.679 1.032-.775 1.29zm-74.129-.645l-.775-1.29 1.679-1.033.775 1.291-1.679 1.032zm70.643-1.419l-1.679-1.033.775-1.29 1.678 1.032-.774 1.291zm-67.156-.646l-.775-1.29 1.679-1.032.775 1.29-1.679 1.032zm63.669-1.419l-1.679-1.032.775-1.29 1.679 1.032-.775 1.29zm-60.182-.516l-.775-1.29 1.679-1.032.775 1.29-1.679 1.032zm56.695-1.419l-1.679-1.032.775-1.29 1.679 1.032-.775 1.29zm-53.208-.645l-.775-1.29 1.679-1.032.775 1.29-1.679 1.032zm49.721-1.419l-1.679-1.032.775-1.29 1.679 1.032-.775 1.29zm-46.234-.516l-.775-1.29 1.679-1.032.775 1.29-1.679 1.032zm42.747-1.419l-1.679-1.032.775-1.29 1.679 1.032-.775 1.29zm-39.26-.645l-.775-1.29 1.679-1.033.774 1.291-1.678 1.032zm35.773-1.419l-1.679-1.033.775-1.29 1.679 1.032-.775 1.291zm-32.287-.517l-.774-1.29 1.678-1.032.775 1.29-1.679 1.032zm28.8-1.419l-1.679-1.032.775-1.29 1.679 1.032-.775 1.29zm-25.313-.645l-.774-1.29 1.678-1.032.775 1.29-1.679 1.032zm21.826-1.419l-1.679-1.032.775-1.29 1.679 1.032-.775 1.29zm-18.339-.645l-.775-1.29 1.679-1.032.775 1.29-1.679 1.032zm14.852-1.419l-1.679-1.032.775-1.29 1.679 1.032-.775 1.29zm-11.365-.516l-.775-1.29 1.679-1.032.775 1.29-1.679 1.032zm7.878-1.419l-1.679-1.032.775-1.291 1.679 1.033-.775 1.29zm-4.391-.645l-.775-1.29 1.679-1.033.775 1.291-1.679 1.032z" fill="#192CDB"/><path d="M551.84 675.438l-61.215 35.35c-4.391 2.451-10.074 3.741-15.756 3.741h-.129c5.682 0 11.365-1.29 15.755-3.741l61.345-35.35zm66.897-38.575l-66.897 38.575 66.897-38.575zm3.487-1.935l-1.679 1.032 1.679-1.032zm3.487-2.064l-1.679 1.032 1.679-1.032zm3.358-1.935l-1.679 1.032 1.679-1.032zm3.487-2.065l-1.679 1.032 1.679-1.032zm3.487-2.064l-1.679 1.032 1.679-1.032zm3.487-1.935l-1.679 1.032 1.679-1.032zm3.487-2.193c-.517.387-1.034.774-1.679 1.161.645-.387 1.162-.774 1.679-1.161zm3.228-12.385c2.325 3.612 1.808 7.74-1.679 11.095 3.487-3.355 4.004-7.483 1.679-11.095zm-2.97-3.097c.516.387 1.033.903 1.55 1.419-.388-.387-.904-.903-1.55-1.419z" fill="url(#paint0_linear)"/><path d="M620.416 635.96l-1.679 1.032 1.679-1.032zm3.487-2.064l-1.679 1.032 1.679-1.032zm3.487-2.064l-1.679 1.032 1.679-1.032zm3.487-1.935l-1.679 1.032 1.679-1.032zm3.487-2.065l-1.679 1.032 1.679-1.032zm3.487-1.935l-1.679 1.032 1.679-1.032zm3.487-2.064l-.129.129-1.55.903 1.55-.903s0-.129.129-.129zm3.228-2.451c-.516.516-1.033.903-1.549 1.29.516-.387 1.033-.774 1.549-1.29z" fill="url(#paint1_linear)"/><path d="M644.825 608.609c.516.516 1.033 1.162 1.291 1.678-.258-.516-.646-1.033-1.291-1.678z" fill="url(#paint2_linear)"/><path d="M111.711 471.856v17.803c0 2.839 1.292 5.548 4.262 7.87.646.516 1.42 1.032 2.195 1.548l14.852 8.515 51.917 29.931.516.258 117.265 67.603 1.549.903 26.734 15.482.904.516 24.537 14.062.775.516 25.7 14.837.646.387 17.564 10.192 1.549.903 56.308 32.511c4.391 2.451 10.073 3.742 15.756 3.742 5.682 0 11.365-1.291 15.756-3.742l114.164-65.796.775-.387 35.644-20.643c.13-.129.259-.129.517-.258.517-.258.904-.645 1.421-.903.129-.129.258-.129.387-.258 3.229-2.58 4.262-5.676 4.262-8.773v-15.868c-.517 2.838-2.583 5.547-6.328 7.741h-.129l-150.584 86.825c-4.391 2.452-10.074 3.742-15.756 3.742-5.683 0-11.365-1.29-15.756-3.742L118.297 480.628c-.516-.258-.904-.645-1.42-.903-3.487-2.451-5.037-5.16-5.166-7.869z" fill="url(#paint3_linear)"/><path d="M641.338 590.29c-.13 0-.13.129 0 0-.13.129-.13 0 0 0zM118.297 480.628l340.816 196.616c4.391 2.452 10.073 3.742 15.756 3.742 5.682 0 11.365-1.29 15.756-3.742l150.583-86.825-150.583 86.825c-4.391 2.452-10.074 3.742-15.756 3.742-5.683 0-11.365-1.29-15.756-3.742L118.297 480.628zm-1.808-1.032s.13 0 0 0c.13 0 0 0 0 0zm316.02 171.975L144.902 485.66l164.144-94.696 287.607 165.911-164.144 94.696zM284.637 371.87c-5.682 0-11.365 1.29-15.756 3.742l-142.318 82.181-.388.129-7.878 4.516c-4.39 2.58-6.586 5.934-6.457 9.288.129 2.71 1.679 5.419 4.779 7.741-4.391-3.096-5.812-7.095-4.262-10.837 1.033 1.806 2.841 3.613 5.424 5.032l340.815 196.616c4.391 2.451 10.074 3.741 15.756 3.741 5.683 0 11.365-1.29 15.756-3.741l150.584-86.826c2.97-1.806 5.037-3.871 5.941-6.064 2.453 4.387.774 9.418-5.295 13.031 3.745-2.194 5.811-4.903 6.328-7.741.645-3.742-1.55-7.483-6.458-10.321l-66.768-38.575-.387-.258-40.94-23.61-.516-.258-39.906-22.964-.258-.129-138.574-79.988-1.55-.903-52.045-29.931c-4.262-2.581-9.944-3.871-15.627-3.871z" fill="url(#paint4_linear)"/><path d="M443.099 567.841c-.517 0-1.033.129-1.421.387-.774.516-.774 1.161 0 1.548.388.129.775.259 1.163.259.516 0 1.033-.13 1.42-.388.775-.516.646-1.161 0-1.548-.387-.129-.775-.258-1.162-.258zM420.24 556.23c-.516 0-1.162.129-1.549.516-.775.516-.775 1.161-.13 1.548a2.44 2.44 0 001.034.258c.516 0 1.162-.129 1.549-.516.904-.516.775-1.161.129-1.548-.258-.258-.645-.258-1.033-.258zm-9.815-3.225c-.258 0-.516.129-.646.129-.387.258-.387.645.259.903.387.129.645.258 1.033.258.258 0 .516 0 .775-.129l.516-.387-1.033-.516c-.387-.258-.646-.258-.904-.258zm-32.674-18.449c-.387 0-.904.129-1.291.258l2.454 1.29c.645-.387.516-1.032-.13-1.419-.258-.129-.645-.129-1.033-.129zm-14.851-7.483c-.517 0-1.163.129-1.55.516-.904.516-.775 1.161-.129 1.548.258.129.645.258 1.033.258.516 0 1.162-.129 1.55-.516.774-.516.774-1.161.129-1.548-.259-.258-.646-.258-1.033-.258zm-19.76-10.192c-.387 0-.904.129-1.291.387l2.454 1.29c.645-.387.516-1.032-.13-1.419-.387-.129-.774-.258-1.033-.258zm-36.806-18.707c-.517 0-1.163.129-1.55.516-.904.516-.775 1.161-.129 1.548.258.129.646.258 1.033.258.517 0 1.162-.129 1.55-.516.775-.516.775-1.161.129-1.548a2.435 2.435 0 00-1.033-.258zm136.119 72.248a3.439 3.439 0 01-1.549-.387c-1.163-.517-1.163-1.549 0-2.194.645-.387 1.42-.645 2.195-.645a3.58 3.58 0 011.679.387c.516.258.904.645.775 1.161l.646-.387.645.387-3.487 2.194c-.775.516-1.42.645-2.195.645-.388 0-.775-.129-1.292-.258l-.645-.258-.388-.129c-.516-.258-.775-.645-.775-1.033l.904-.129c0 .387.388.775 1.034 1.033.387.258.774.258 1.162.258.516 0 1.033-.129 1.42-.516l.259-.258c-.129.129-.259.129-.388.129zm-11.106-5.032l-.646-.387 3.874-2.58.646.387-.646.387h.517c.517 0 1.033.129 1.421.387.904.516 1.033 1.161-.13 1.935l-2.195 1.419-.775-.387 2.196-1.419c.774-.516.774-.903.129-1.29a2.439 2.439 0 00-1.033-.258c-.517 0-1.034.129-1.55.516l-1.808 1.29zm-5.683-2.838l-.645-.387 3.874-2.581.646.387-3.875 2.581zm4.65-3.226c-.13 0-.259 0-.388-.129-.258-.129-.258-.387 0-.516.129-.129.388-.129.517-.129s.258 0 .387.129c.259.129.259.387 0 .516-.129.129-.258.129-.516.129zm-11.107-.387c-.517 0-1.033-.129-1.421-.258-1.162-.516-1.162-1.548 0-2.322a4.84 4.84 0 012.325-.645 3.58 3.58 0 011.679.387c.517.258.775.645.775 1.032l2.195-1.419.646.387-5.424 3.612-.646-.387.646-.387h-.775zm-7.749-7.095l.259-.516h.129c.775 0 1.42.129 2.066.516 1.033.516 1.033 1.161 0 1.806l-2.325 1.548-.645-.387.516-.387h-.516c-.388 0-.904-.129-1.292-.387-.904-.516-.904-1.032-.258-1.419.258-.258.775-.387 1.162-.387.388 0 .904.129 1.55.387l1.162.516.13-.129c.645-.387.645-.774-.13-1.161-.645.129-1.291 0-1.808 0zm-9.04-1.161l-.775-.387 3.875-2.581.645.387-.645.387c.258 0 .387-.129.645-.129.517 0 .904.129 1.421.387l-.646.387-.129-.129a2.435 2.435 0 00-1.033-.258c-.517 0-1.033.129-1.55.516l-1.808 1.42zm-3.229-6.193l.904-.516.775.387-.904.516 1.163.516-.646.387-1.162-.645-2.067 1.419c-.387.258-.387.516 0 .774.129.129.388.129.646.129l-.258.516h-.129a2.44 2.44 0 01-1.034-.258c-.774-.387-.774-.903 0-1.419l2.196-1.419-.646-.387.646-.387.516.387zm33.191 11.482l-5.941-2.967 20.018-2.709 2.195-11.354 5.941 2.968-1.55 7.482 12.786-1.806 5.811 2.968-19.242 2.58-2.196 11.869-6.07-3.096 1.679-7.87-13.431 1.935zm-50.367-15.611l-.775-.387 3.487-.516.517-1.935.775.387-.388 1.419 2.454-.387.775.387-3.358.516-.517 2.065-.774-.387.387-1.549-2.583.387zm-4.778-2.967a3.576 3.576 0 01-1.679-.387c-1.292-.645-1.292-1.548-.129-2.322a4.833 4.833 0 012.324-.645c.646 0 1.163.129 1.679.387 1.162.516 1.163 1.548-.129 2.322l-.258.129-3.1-1.548c-.645.516-.516 1.032.259 1.419.387.129.774.258 1.291.258h.387l-.129.516c-.258-.129-.387-.129-.516-.129zm-9.17-4.257l-.645-.387 3.874-2.581.646.388-.646.387c.258 0 .387-.129.646-.129.516 0 .904.129 1.42.387l-.645.387-.13-.129a2.431 2.431 0 00-1.033-.258c-.516 0-1.033.129-1.549.516l-1.938 1.419zm68.06-.387l1.421-.903c2.583-1.678 5.424-2.581 8.394-2.581 2.454 0 4.908.516 7.232 1.807h.13c1.808.903 3.228 2.064 3.616 3.225l-5.295 1.806c-.259-.774-.904-1.548-2.067-2.064a6.004 6.004 0 00-2.97-.774c-1.292 0-2.583.387-4.004 1.29l-1.291.903 6.328 3.225-4.003 2.71-6.199-3.097-17.435 11.482-5.424-2.709 17.434-11.482-3.745-1.935 4.133-2.709 3.745 1.806zm-73.742-2.839a3.58 3.58 0 01-1.679-.387c-1.162-.645-1.162-1.548 0-2.322a4.84 4.84 0 012.325-.645c.645 0 1.162.129 1.679.387 1.162.645 1.162 1.548 0 2.322-.775.387-1.55.645-2.325.645zm-5.424-6.966l.387-.258c.388-.258.904-.387 1.421-.387.387 0 .775.129 1.033.258.258.129.517.387.517.516l-.775.258c0-.129-.129-.258-.388-.387-.129-.129-.387-.129-.516-.129-.259 0-.517.129-.775.258l-.388.258 1.163.516-.646.387-1.033-.516-3.358 2.193-.646-.387 3.358-2.193-.646-.387.646-.387.646.387zm36.161 13.288l-5.683-2.838 21.438-14.063 5.683 2.839-3.1 2.064 1.55-.129h1.679c1.162 0 2.325.129 3.358.258 1.55.258 2.841.645 4.003 1.29 1.163.645 2.067 1.29 2.712 2.064.646.774.904 1.548.904 2.451 0 .904-.258 1.807-.904 2.71-.645.903-1.679 1.806-2.97 2.58l-13.173 8.515-5.682-2.838 12.139-7.999c.904-.645 1.55-1.161 2.067-1.677.775-.774 1.033-1.549.904-2.323-.129-.774-.775-1.419-1.937-1.935a8.217 8.217 0 00-2.325-.774c-.646-.129-1.292-.129-2.066-.129h-.775c-1.033 0-2.067.258-2.971.516-1.033.387-1.937.774-2.841 1.419l-12.01 7.999zm-11.107-8.128c-1.55 0-3.229-.129-4.649-.387-2.066-.387-3.875-.903-5.553-1.806-2.454-1.29-4.133-2.967-4.779-4.644a7.315 7.315 0 01-.387-2.323c.516-.129 1.162-.129 1.679-.258a40.924 40.924 0 005.682-1.548l-.387.774c-.259 1.032-.13 2.193.645 3.097a5.858 5.858 0 002.196 1.677c1.42.774 3.228 1.161 5.037 1.29h.904c1.549 0 3.099-.258 4.52-.645 1.162-.387 2.195-.774 3.228-1.419 1.421-.903 2.196-1.936 2.454-3.097v-.129l6.586 1.161c-.129.387-.387.774-.645 1.162-.775 1.161-1.937 2.322-3.487 3.354-2.325 1.548-5.295 2.58-8.395 3.096-1.42.516-3.099.645-4.649.645zm-39.518-8.257a3.576 3.576 0 01-1.679-.387c-1.292-.645-1.163-1.548-.13-2.322a4.84 4.84 0 012.325-.645c.517 0 1.162.129 1.55.387 1.162.516 1.162 1.548-.129 2.322l-.259.129-3.099-1.548c-.517.516-.517 1.032.258 1.419.388.129.775.258 1.292.258h.387l-.129.516c0-.258-.129-.129-.387-.129zm-11.236-5.418l-.775-.387 3.874-2.58.646.387-.646.387h.517c.516 0 1.033.129 1.42.387.905.516 1.034 1.161-.129 1.935l-2.195 1.419-.775-.387 2.195-1.419c.775-.516.775-.903.13-1.29a2.44 2.44 0 00-1.034-.258c-.516 0-1.033.129-1.549.516l-1.679 1.29zm31.641 3.87c-1.55 0-3.1-.129-4.65-.387-2.066-.387-3.874-.903-5.553-1.806-2.454-1.29-4.133-2.967-4.778-4.644-.13-.387-.259-.775-.259-1.162l8.007 1.549a6.501 6.501 0 001.808 1.29c1.421.774 3.229 1.161 5.037 1.29h.904c1.292 0 2.454-.129 3.745-.387l8.007 1.548c-2.195 1.29-4.778 2.064-7.49 2.58-1.55 0-3.1.129-4.778.129zm11.881-7.87c1.55-.645 3.229-1.032 4.907-1.29a29.846 29.846 0 014.779-.387c1.55 0 3.228.129 4.649.387 2.066.387 3.874.903 5.553 1.807 2.454 1.29 4.133 2.967 4.779 4.644.516 1.161.516 2.193.258 3.354l-6.716-1.29c0-.645-.387-1.419-.774-2.064-.517-.645-1.292-1.29-2.196-1.806-1.42-.774-3.228-1.161-5.037-1.29h-.904c-1.549 0-3.099.258-4.52.645-1.162.258-2.066.774-2.97 1.29l-4.52-.903-2.196-.387 2.196.387-2.841-.516.904-.129 4.907-.903 1.163-.774-1.163.774-4.907.903-.904.129h-.129.129l2.841.516 4.52.903h-.129l-7.361-1.419.129-.129c.129-.129.516-.387 1.291-.774 1.808-.774 4.133-1.678 4.262-1.678zm-49.205 1.162l-.645-.387 3.874-2.581.646.387-3.875 2.581zm4.779-3.097c-.129 0-.259 0-.388-.129-.258-.129-.258-.387 0-.516.129-.129.388-.129.517-.129s.258 0 .387.129c.259.129.259.387 0 .516-.129 0-.387.129-.516.129zm-10.461.258l-.646-.387 5.424-3.612.646.387-5.424 3.612zm-8.524-4.386l-.645-.387 3.874-2.58.646.387-.646.387h.517c.516 0 1.033.129 1.42.387.904.516 1.033 1.161-.129 1.935l-2.195 1.419-.646-.387 2.195-1.419c.775-.516.775-.903.129-1.29a2.431 2.431 0 00-1.033-.258c-.516 0-1.033.129-1.549.516l-1.938 1.29zm43.522 6.321l-7.361-1.419c0-1.161.388-2.322 1.033-3.483.775-1.161 1.938-2.322 3.487-3.354 2.325-1.549 5.295-2.581 8.395-3.097a29.834 29.834 0 014.778-.387c1.55 0 3.229.129 4.649.387 2.067.387 3.875.903 5.554 1.807 2.453 1.29 4.132 2.967 4.778 4.644.258.774.388 1.548.388 2.322-.517 0-1.034.129-1.55.258-2.067.387-4.004.903-5.812 1.677.129-.387.388-.645.388-.903.258-1.032.129-2.193-.646-3.096a5.858 5.858 0 00-2.196-1.677c-1.42-.774-3.228-1.161-5.036-1.29h-.904c-1.55 0-3.1.258-4.65.645-1.162.387-2.195.774-3.099 1.419-1.421.903-2.195 1.935-2.454 3.096-.258.774-.129 1.677.258 2.451zm-49.204-9.675a3.58 3.58 0 01-1.679-.388c-1.162-.645-1.162-1.548 0-2.322a4.84 4.84 0 012.325-.645c.645 0 1.162.129 1.679.387 1.162.645 1.162 1.548 0 2.322a4.84 4.84 0 01-2.325.646zm34.353 5.934c-3.358 0-6.716-.774-9.686-2.322-7.232-3.742-7.749-9.289-1.292-13.546 3.487-2.323 8.007-3.484 12.527-3.484 3.746 0 7.62.774 10.978 2.58 4.391 2.323 6.199 5.161 4.778 8.257l-6.328-.645c.775-2.064-.387-3.741-2.712-4.902-1.679-.903-3.874-1.29-5.941-1.29-2.712 0-5.424.774-7.748 2.193-4.262 2.709-3.746 5.934.129 7.999 1.55.774 3.487 1.29 5.553 1.29 1.033 0 2.066-.129 3.1-.258l1.808 3.612c-1.679.387-3.487.516-5.166.516zm-41.585-15.094c1.033 0 2.324-.258 3.874-.645l1.162-.388 11.882-19.351 5.553 2.838-8.782 14.191 23.246-6.837 5.166 2.58-34.094 9.805c-3.1 1.032-5.812 1.419-8.136 1.419-2.842 0-5.037-.645-7.103-1.677-2.325-1.161-3.875-2.839-4.133-4.387l5.812-1.29c.129 1.161 1.033 2.193 2.453 2.968.904.516 1.937.774 3.1.774zm2.712-27.351l4.907-3.226 5.295 2.71-4.907 3.225 6.07 3.096-4.004 2.71-6.07-3.097-10.331 6.709c-2.067 1.419-2.067 2.709-.129 3.741 1.162.516 2.453.904 3.874.904l-2.066 3.096c-2.325 0-4.65-.645-6.587-1.677-5.037-2.581-5.295-5.677-.516-8.773l10.46-6.838-3.745-1.935 4.004-2.709 3.745 2.064zm7.878-73.538L144.901 485.66l287.608 165.911 164.144-94.696-287.607-165.911z" fill="url(#paint5_linear)"/><path d="M118.168 480.628s.13 0 0 0c.13 0 0 0 0 0zm-.129 0s.129 0 0 0c.129 0 0 0 0 0zm-1.291-.903c.387.258.904.645 1.42.903-.516-.387-1.033-.645-1.42-.903zm-.129 0s.129 0 0 0c.129 0 0 0 0 0z" fill="url(#paint6_linear)"/><path d="M112.357 468.63c-1.55 3.742-.129 7.741 4.132 10.837.388.258.904.645 1.421.903l340.816 196.616c4.391 2.452 10.073 3.742 15.755 3.742 5.683 0 11.365-1.29 15.756-3.742l150.584-86.825h.129c6.07-3.484 7.749-8.515 5.295-13.031-.904 2.193-2.841 4.387-5.941 6.064L489.721 670.02c-4.391 2.451-10.074 3.741-15.756 3.741-5.683 0-11.365-1.29-15.756-3.741L117.781 473.662c-2.583-1.419-4.391-3.226-5.424-5.032z" fill="url(#paint7_linear)"/><path d="M140.381 511.721l-2.841-1.678v-18.19l2.841 1.548v18.32zM433.801 680.986l-2.842-1.677v-18.191l2.842 1.677v18.191z" fill="#fff"/><path d="M229.105 423.089c1.033.645 1.291 1.419.645 1.806l-26.087 15.094c-.775.387-2.196.258-3.229-.387l-.646-.387c-1.033-.645-1.291-1.419-.645-1.806l26.087-15.095c.775-.387 2.196-.258 3.229.387l.646.388zM191.781 444.247c2.067 1.161 2.067 3.096 0 4.386-2.066 1.161-5.424 1.161-7.619 0-2.067-1.161-2.067-3.096 0-4.386 2.195-1.29 5.553-1.29 7.619 0zM173.701 454.697c3.1 1.806 3.1 4.773 0 6.579-3.099 1.807-8.265 1.807-11.365 0-3.099-1.806-3.099-4.773 0-6.579 3.1-1.806 8.266-1.806 11.365 0z" fill="#3A3768"/><path d="M553.519 610.416c7.748 4.515 7.748 11.74 0 16.255-7.749 4.516-20.405 4.516-28.154 0-7.749-4.515-7.749-11.74 0-16.255 7.749-4.387 20.276-4.387 28.154 0z" fill="#fff"/><path d="M553.519 608.738c7.748 4.516 7.748 11.741 0 16.256-7.749 4.516-20.405 4.516-28.154 0-7.749-4.515-7.749-11.74 0-16.256 7.749-4.515 20.276-4.515 28.154 0z" fill="url(#paint8_linear)"/><path d="M511.159 420.766l.387.258-.387-.258z" fill="#FFD657"/><path d="M374.006 517.01a21.84 21.84 0 01-5.682 1.548c-.517.129-1.034.129-1.679.258 0 .774.129 1.548.387 2.323.646 1.806 2.325 3.483 4.778 4.644 1.679.903 3.617 1.419 5.554 1.806 1.55.258 3.099.387 4.649.387 1.55 0 3.229-.129 4.778-.387 3.1-.516 6.07-1.548 8.395-3.096 1.55-1.032 2.712-2.193 3.487-3.354.258-.387.516-.775.646-1.162l-6.587-1.161v.129c-.258 1.032-1.162 2.194-2.454 3.097-.904.645-1.937 1.032-3.228 1.419-1.421.387-2.971.645-4.52.645h-.904c-1.808-.129-3.617-.516-5.037-1.29-1.033-.516-1.679-1.032-2.196-1.677-.774-1.033-1.033-2.065-.645-3.097 0-.516.129-.774.258-1.032z" fill="url(#paint9_linear)"/><path d="M347.66 510.301c.129.387.129.775.259 1.162.645 1.806 2.324 3.483 4.778 4.644 1.679.903 3.487 1.419 5.553 1.806 1.55.258 3.1.387 4.649.387 1.55 0 3.229-.129 4.779-.387 2.712-.387 5.295-1.29 7.49-2.58l-8.007-1.548a17.55 17.55 0 01-3.745.387h-.904c-1.808-.129-3.616-.516-5.037-1.29a6.486 6.486 0 01-1.808-1.29l-8.007-1.291z" fill="url(#paint10_linear)"/><path d="M365.353 498.948c-1.55 0-3.228.129-4.778.387-3.1.516-6.07 1.548-8.395 3.097-1.549 1.032-2.712 2.193-3.487 3.354-.645 1.161-1.033 2.322-1.033 3.483l7.362 1.419c-.517-.774-.646-1.677-.259-2.58.259-1.032 1.163-2.193 2.454-3.096.904-.645 2.066-1.032 3.1-1.419 1.42-.387 3.099-.645 4.649-.645h.904c1.808.129 3.616.516 5.037 1.29 1.033.516 1.678 1.032 2.195 1.677.775 1.032 1.033 2.064.646 3.096-.129.387-.259.645-.388.903 1.808-.774 3.745-1.29 5.812-1.677.516-.129 1.033-.129 1.55-.258 0-.774-.13-1.548-.388-2.322-.646-1.806-2.325-3.483-4.778-4.645-1.679-.774-3.487-1.419-5.554-1.806-1.549-.129-3.099-.258-4.649-.258z" fill="url(#paint11_linear)"/><path d="M368.969 513.398h-.129l7.362 1.29h.129l-4.52-.903-2.842-.387z" fill="url(#paint12_linear)"/><path d="M369.098 513.269l-.129.129.129-.129zm.905-.129l-.905.129 2.842.516-2.196-.387.259-.258z" fill="url(#paint13_linear)"/><path d="M384.467 508.753c-1.55 0-3.229.129-4.779.387-1.679.258-3.357.774-4.907 1.291l1.291 1.032-1.162.774-4.908.903-.258.258 2.196.387 4.52.903c.904-.516 1.937-1.032 2.97-1.29 1.421-.387 2.97-.645 4.52-.645h.904c1.808.129 3.616.516 5.037 1.29 1.033.516 1.679 1.032 2.195 1.806.517.645.775 1.29.775 2.064l6.716 1.29c.258-1.161.258-2.322-.258-3.354-.646-1.806-2.325-3.483-4.779-4.644-1.679-.774-3.487-1.42-5.553-1.807-1.421-.516-2.97-.645-4.52-.645z" fill="url(#paint14_linear)"/><path d="M374.652 510.431s-2.325.903-4.391 2.064c-.775.387-1.162.645-1.292.774l-.129.129h.129l.904-.129 4.908-.903 1.162-.774-1.291-1.161z" fill="url(#paint15_linear)"/><path d="M306.075 461.276l-4.907 3.226-3.745-1.935-4.004 2.709 3.745 1.935-10.461 6.838c-4.778 3.096-4.39 6.192.517 8.773 1.937 1.032 4.262 1.677 6.587 1.677l2.066-3.096a9.028 9.028 0 01-3.875-.904c-2.066-1.032-2.066-2.322.13-3.741l10.331-6.709 6.07 3.097 4.004-2.71-6.07-3.096 4.907-3.225-5.295-2.839z" fill="url(#paint16_linear)"/><path d="M315.374 471.598l-11.882 19.351-1.162.388c-1.55.387-2.841.645-3.874.645-1.163 0-2.196-.258-3.1-.774-1.42-.775-2.324-1.807-2.453-2.968l-5.812 1.29c.129 1.549 1.808 3.226 4.133 4.387a15.593 15.593 0 007.103 1.677c2.324 0 4.907-.387 8.136-1.419l34.094-9.805-5.166-2.58-23.246 6.837 8.782-14.191-5.553-2.838z" fill="url(#paint17_linear)"/><path d="M341.59 487.724c-4.52 0-9.04 1.161-12.527 3.484-6.457 4.257-5.94 9.805 1.292 13.546 2.97 1.548 6.328 2.322 9.686 2.322 1.679 0 3.487-.258 5.165-.645l-1.808-3.612c-1.033.258-2.066.258-3.099.258-2.196 0-4.004-.516-5.553-1.29-3.875-1.936-4.391-5.161-.129-7.999 2.324-1.548 5.036-2.193 7.748-2.193 2.196 0 4.262.516 5.941 1.29 2.325 1.161 3.487 2.838 2.712 4.902l6.328.645c1.55-3.096-.258-5.934-4.778-8.257-3.358-1.677-7.232-2.451-10.978-2.451z" fill="url(#paint18_linear)"/><path d="M445.94 529.395c-2.97 0-5.941.903-8.394 2.581l-1.421.903-3.745-1.935-4.133 2.709 3.745 1.935-17.434 11.482 5.424 2.709 17.435-11.482 6.199 3.097 4.003-2.71-6.328-3.225 1.291-.903c1.292-.903 2.583-1.29 4.004-1.29 1.033 0 1.937.258 2.97.774 1.033.516 1.808 1.29 2.067 2.064l5.295-1.806c-.388-1.161-1.809-2.322-3.617-3.225h-.129c-2.324-1.162-4.778-1.678-7.232-1.678z" fill="url(#paint19_linear)"/><path d="M448.652 538.942l-2.195 11.353-19.889 2.71 5.812 2.967 13.56-1.935-1.679 7.999 5.941 3.096 2.195-11.869 19.243-2.58-5.811-2.968-12.786 1.806 1.55-7.482-5.941-3.097z" fill="url(#paint20_linear)"/><path d="M305.688 500.496c-.388 0-.775-.129-1.033-.258-.775-.387-.775-1.032.129-1.548.516-.258 1.033-.516 1.55-.516.387 0 .775.129 1.033.258.775.387.775 1.032-.129 1.548-.388.387-1.034.516-1.55.516zm.646-2.838a4.84 4.84 0 00-2.325.645c-1.162.774-1.162 1.677 0 2.322a3.58 3.58 0 001.679.387 4.84 4.84 0 002.325-.645c1.162-.774 1.162-1.677 0-2.322a3.984 3.984 0 00-1.679-.387z" fill="url(#paint21_linear)"/><path d="M314.599 501.4l-3.874 2.58.645.387 2.067-1.29c.516-.258 1.033-.516 1.549-.516.388 0 .646.129 1.034.258.645.387.645.774-.13 1.29l-2.195 1.419.646.387 2.195-1.419c1.163-.774 1.033-1.419.129-1.935-.516-.258-.904-.387-1.42-.387h-.517l.646-.387-.775-.387z" fill="url(#paint22_linear)"/><path d="M324.672 504.754l-5.424 3.612.646.387 5.553-3.612-.775-.387z" fill="url(#paint23_linear)"/><path d="M328.805 508.624l-3.874 2.581.645.387 3.875-2.581-.646-.387zm1.679-.903c-.258 0-.388 0-.517.129-.258.129-.258.387 0 .516.129 0 .259.129.388.129.258 0 .387 0 .516-.129.259-.129.259-.387 0-.516-.129-.129-.258-.129-.387-.129z" fill="url(#paint24_linear)"/><path d="M334.487 511.592l-3.874 2.58.775.387 2.066-1.29c.517-.258 1.033-.516 1.55-.516.387 0 .646.129 1.033.258.646.387.646.774-.129 1.29l-2.195 1.419.774.387 2.196-1.419c1.162-.774 1.033-1.419.129-1.935-.517-.258-.904-.387-1.421-.387h-.516l.646-.387-1.034-.387z" fill="url(#paint25_linear)"/><path d="M344.302 518.429l-2.453-1.29a2.492 2.492 0 011.291-.387c.388 0 .775.129 1.033.258.646.516.646 1.032.129 1.419zm-1.162-2.064c-.775 0-1.679.258-2.324.645-1.163.774-1.163 1.677.129 2.322a3.576 3.576 0 001.679.387h.516l.129-.516h-.387c-.517 0-.904-.129-1.292-.258-.774-.387-.774-1.032-.258-1.419l3.1 1.548.258-.129c1.162-.774 1.162-1.677.129-2.322-.517-.129-1.162-.258-1.679-.258z" fill="url(#paint26_linear)"/><path d="M358.638 522.3c-.517 0-1.033.129-1.421.387l-.387.258-.646-.387-.646.387.646.387-3.358 2.193.646.387 3.358-2.193 1.033.516.646-.387-1.163-.516.388-.258c.258-.129.516-.258.775-.258.129 0 .387 0 .516.129.258.129.258.258.388.387l.774-.258c-.129-.129-.258-.387-.516-.516a2.435 2.435 0 00-1.033-.258z" fill="url(#paint27_linear)"/><path d="M362.383 529.266c-.388 0-.775-.129-1.033-.258-.775-.387-.775-1.032.129-1.548.516-.258 1.033-.516 1.55-.516.387 0 .774.129 1.033.258.775.387.775 1.032-.129 1.548a2.486 2.486 0 01-1.55.516zm.516-2.709c-.774 0-1.678.258-2.324.645-1.162.774-1.162 1.677 0 2.322a3.576 3.576 0 001.679.387c.775 0 1.679-.258 2.324-.645 1.163-.774 1.163-1.677 0-2.322-.387-.258-1.033-.387-1.679-.387z" fill="url(#paint28_linear)"/><path d="M371.294 530.298l-3.874 2.581.645.387 1.937-1.29c.517-.258 1.034-.516 1.55-.516.388 0 .646.129 1.033.258l.13.129.645-.387c-.516-.258-.904-.387-1.42-.387-.259 0-.388 0-.646.129l.646-.387-.646-.517z" fill="url(#paint29_linear)"/><path d="M378.914 536.104l-2.454-1.29c.387-.258.904-.258 1.291-.258.388 0 .775.129 1.033.258.646.258.646.903.13 1.29zm-1.163-2.064c-.775 0-1.679.258-2.324.645-1.163.774-1.163 1.677.129 2.322a3.576 3.576 0 001.679.387h.516l.129-.516h-.387c-.517 0-.904-.129-1.292-.258-.774-.387-.774-1.032-.258-1.419l3.1 1.548.258-.129c1.162-.774 1.162-1.677.129-2.322-.516-.129-1.033-.258-1.679-.258z" fill="url(#paint30_linear)"/><path d="M385.242 537.394l-.388 2.064-3.616.516.775.387 2.583-.387-.258 1.549.775.387.387-2.065 3.358-.516-.775-.387-2.454.387.388-1.548-.775-.387z" fill="url(#paint31_linear)"/><path d="M399.964 543.845l-.904.516-.645-.387-.646.387.646.387-2.196 1.419c-.775.516-.775 1.032 0 1.419.258.129.646.258 1.033.258h.129l.259-.516c-.259 0-.517-.129-.646-.129-.388-.258-.388-.387 0-.774l2.066-1.419 1.163.645.645-.387-1.162-.516.904-.516-.646-.387z" fill="url(#paint32_linear)"/><path d="M405.647 547.844l-3.875 2.581.775.387 1.937-1.291c.517-.258 1.034-.516 1.55-.516.388 0 .646.129 1.033.258l.129.129.646-.387c-.516-.258-.904-.387-1.42-.387-.259 0-.388 0-.646.129l.646-.387-.775-.516z" fill="url(#paint33_linear)"/><path d="M411.071 554.166c-.388 0-.775-.129-1.033-.258-.517-.258-.646-.645-.259-.903.129-.129.388-.129.646-.129s.517.129.904.258l1.033.516-.516.387c-.259.129-.517.129-.775.129zm.646-2.838l-.259.516h.129a3.44 3.44 0 011.55.387c.646.387.646.774.129 1.161l-.129.129-1.162-.516a3.443 3.443 0 00-1.55-.387c-.517 0-.904.129-1.162.387-.646.387-.646 1.032.258 1.419.387.258.904.387 1.292.387h.516l-.516.387.645.387 2.325-1.548c1.033-.645 1.033-1.29 0-1.806-.646-.645-1.292-.903-2.066-.903z" fill="url(#paint34_linear)"/><path d="M419.594 558.423c-.387 0-.774-.129-1.033-.258-.775-.387-.775-1.032.129-1.548.517-.258 1.034-.516 1.55-.516.388 0 .775.129 1.033.258.775.387.775 1.032-.129 1.548-.387.387-1.033.516-1.55.516zm.646-2.838c-.775 0-1.679.258-2.324.645-1.163.774-1.163 1.677 0 2.322.387.258.904.258 1.42.258h.646l-.646.387.646.388 5.424-3.613-.646-.387-2.195 1.419c.129-.387-.129-.774-.775-1.032-.387-.258-1.033-.387-1.55-.387z" fill="url(#paint35_linear)"/><path d="M428.893 559.584l-3.874 2.581.645.387 3.875-2.58-.646-.388zm1.55-1.032c-.259 0-.388 0-.517.129-.258.129-.258.387 0 .516.129 0 .258.129.388.129.258 0 .387 0 .516-.129.258-.129.258-.387 0-.516 0 0-.258-.129-.387-.129z" fill="url(#paint36_linear)"/><path d="M434.575 562.423l-3.874 2.58.646.387 2.066-1.29c.517-.258 1.033-.516 1.55-.516.387 0 .646.129 1.033.258.646.387.646.774-.129 1.29l-2.196 1.419.775.387 2.196-1.419c1.162-.774 1.033-1.419.129-1.935-.517-.258-.904-.387-1.421-.387h-.516l.645-.387-.904-.387z" fill="url(#paint37_linear)"/><path d="M442.841 570.034c-.388 0-.775-.129-1.163-.258-.775-.387-.775-1.032 0-1.548.388-.258.904-.387 1.421-.387.387 0 .775.129 1.162.258.775.387.775 1.032 0 1.548-.387.258-.904.387-1.42.387zm.258-2.709c-.775 0-1.55.258-2.196.645-1.162.774-1.033 1.677 0 2.193.388.258.905.388 1.55.388h.517l-.258.258c-.517.387-1.034.516-1.421.516-.388 0-.775-.129-1.162-.258-.517-.258-.904-.645-1.034-1.033l-.904.129c0 .388.388.775.775 1.033l.388.129.645.258c.388.129.775.258 1.292.258.775 0 1.421-.258 2.195-.645l3.487-2.194-.645-.387-.646.387c.129-.387-.258-.903-.775-1.161a3.534 3.534 0 00-1.808-.516z" fill="url(#paint38_linear)"/><path d="M409.004 519.332l-21.438 14.063 5.683 2.838 12.01-7.87c.904-.645 1.808-1.032 2.841-1.419.904-.258 1.938-.516 2.971-.516h.775c.775 0 1.42 0 2.066.129.904.129 1.679.387 2.325.774 1.033.516 1.679 1.161 1.937 1.935.129.774-.129 1.549-.904 2.323-.517.516-1.162 1.032-2.067 1.677l-12.139 7.999 5.682 2.838 13.173-8.515c1.292-.903 2.325-1.806 2.97-2.58.646-.903.904-1.806.904-2.709 0-.904-.258-1.807-.904-2.452-.516-.774-1.42-1.419-2.712-2.064-1.162-.645-2.583-1.032-4.003-1.29-1.033-.129-2.196-.258-3.358-.258h-1.679l-1.55.129 3.1-2.064-5.683-2.968z" fill="url(#paint39_linear)"/><path d="M596.5 562L431 657l2.5-378 164-114.5-1 397.5z" fill="url(#paint40_linear)"/><path d="M594.5 556L309 391V158h285.5v398z" fill="url(#paint41_linear)" fill-opacity=".1"/><path d="M308 395.5l-161.5 96v-377L310.5 0 308 395.5z" fill="url(#paint42_linear)" fill-opacity=".2"/><path d="M432.5 652L147 487V254h285.5v398z" fill="url(#paint43_linear)"/><defs><linearGradient id="paint22_linear" x1="144.847" y1="503.632" x2="596.672" y2="503.632" gradientUnits="userSpaceOnUse"><stop stop-color="#3BD5F0"/><stop offset=".157" stop-color="#37CDEC"/><stop offset=".406" stop-color="#2CB6E0"/><stop offset=".45" stop-color="#2AB1DE"/><stop offset="1" stop-color="#454ACA"/></linearGradient><linearGradient id="paint0_linear" x1="425.655" y1="481.492" x2="334.765" y2="639.08" gradientUnits="userSpaceOnUse"><stop stop-color="#B1B3C2"/><stop offset=".026" stop-color="#AFB2C1"/><stop offset=".24" stop-color="#A5AABE"/><stop offset=".507" stop-color="#A2A7BD"/><stop offset=".785" stop-color="#A7AABF"/><stop offset="1" stop-color="#AFB1C2"/></linearGradient><linearGradient id="paint2_linear" x1="646.06" y1="608.612" x2="555.168" y2="766.2" gradientUnits="userSpaceOnUse"><stop stop-color="#303DAE"/><stop offset=".026" stop-color="#2E3BAD"/><stop offset=".24" stop-color="#2433A9"/><stop offset=".507" stop-color="#2130A8"/><stop offset=".785" stop-color="#2633AA"/><stop offset="1" stop-color="#2E3AAD"/></linearGradient><linearGradient id="paint3_linear" x1="647.568" y1="585.583" x2="111.755" y2="585.583" gradientUnits="userSpaceOnUse"><stop stop-color="#7E95AE"/><stop offset=".556" stop-color="#B8D0DB"/><stop offset="1" stop-color="#FFEFE5"/></linearGradient><linearGradient id="paint4_linear" x1="271.456" y1="634.61" x2="487.724" y2="418.119" gradientUnits="userSpaceOnUse"><stop stop-color="#CCD8E0"/><stop offset=".582" stop-color="#fff"/><stop offset="1" stop-color="#E8E2E5"/></linearGradient><linearGradient id="paint5_linear" x1="144.848" y1="521.325" x2="596.671" y2="521.325" gradientUnits="userSpaceOnUse"><stop stop-color="#27AAE1"/><stop offset=".45" stop-color="#1C75BC"/><stop offset="1" stop-color="#2E3192"/></linearGradient><linearGradient id="paint6_linear" x1="647.566" y1="534.947" x2="111.755" y2="534.947" gradientUnits="userSpaceOnUse"><stop stop-color="#A5B5C6"/><stop offset=".556" stop-color="#CDDEE6"/><stop offset="1" stop-color="#FFF4ED"/></linearGradient><linearGradient id="paint7_linear" x1="271.716" y1="634.869" x2="487.984" y2="418.379" gradientUnits="userSpaceOnUse"><stop stop-color="#DBE4E9"/><stop offset=".582" stop-color="#fff"/><stop offset="1" stop-color="#EFEBED"/></linearGradient><linearGradient id="paint8_linear" x1="519.498" y1="616.816" x2="559.293" y2="616.816" gradientUnits="userSpaceOnUse"><stop stop-color="#CCD8E0"/><stop offset="1" stop-color="#fff"/></linearGradient><linearGradient id="paint9_linear" x1="144.848" y1="522.543" x2="596.671" y2="522.543" gradientUnits="userSpaceOnUse"><stop stop-color="#3BD5F0"/><stop offset=".157" stop-color="#37CDEC"/><stop offset=".406" stop-color="#2CB6E0"/><stop offset=".45" stop-color="#2AB1DE"/><stop offset="1" stop-color="#454ACA"/></linearGradient><linearGradient id="paint10_linear" x1="144.848" y1="514.284" x2="596.671" y2="514.284" gradientUnits="userSpaceOnUse"><stop stop-color="#3BD5F0"/><stop offset=".157" stop-color="#37CDEC"/><stop offset=".406" stop-color="#2CB6E0"/><stop offset=".45" stop-color="#2AB1DE"/><stop offset="1" stop-color="#454ACA"/></linearGradient><linearGradient id="paint11_linear" x1="144.848" y1="504.895" x2="596.671" y2="504.895" gradientUnits="userSpaceOnUse"><stop stop-color="#3BD5F0"/><stop offset=".157" stop-color="#37CDEC"/><stop offset=".406" stop-color="#2CB6E0"/><stop offset=".45" stop-color="#2AB1DE"/><stop offset="1" stop-color="#454ACA"/></linearGradient><linearGradient id="paint12_linear" x1="144.848" y1="514.058" x2="596.671" y2="514.058" gradientUnits="userSpaceOnUse"><stop stop-color="#3BD5F0"/><stop offset=".157" stop-color="#37CDEC"/><stop offset=".406" stop-color="#2CB6E0"/><stop offset=".45" stop-color="#2AB1DE"/><stop offset="1" stop-color="#454ACA"/></linearGradient><linearGradient id="paint13_linear" x1="144.849" y1="513.516" x2="596.67" y2="513.516" gradientUnits="userSpaceOnUse"><stop stop-color="#3BD5F0"/><stop offset=".157" stop-color="#37CDEC"/><stop offset=".406" stop-color="#2CB6E0"/><stop offset=".45" stop-color="#2AB1DE"/><stop offset="1" stop-color="#454ACA"/></linearGradient><linearGradient id="paint14_linear" x1="144.848" y1="513.877" x2="596.671" y2="513.877" gradientUnits="userSpaceOnUse"><stop stop-color="#3BD5F0"/><stop offset=".157" stop-color="#37CDEC"/><stop offset=".406" stop-color="#2CB6E0"/><stop offset=".45" stop-color="#2AB1DE"/><stop offset="1" stop-color="#454ACA"/></linearGradient><linearGradient id="paint15_linear" x1="144.848" y1="511.891" x2="596.671" y2="511.891" gradientUnits="userSpaceOnUse"><stop stop-color="#3BD5F0"/><stop offset=".157" stop-color="#37CDEC"/><stop offset=".406" stop-color="#2CB6E0"/><stop offset=".45" stop-color="#2AB1DE"/><stop offset="1" stop-color="#454ACA"/></linearGradient><linearGradient id="paint16_linear" x1="144.848" y1="472.849" x2="596.671" y2="472.849" gradientUnits="userSpaceOnUse"><stop stop-color="#3BD5F0"/><stop offset=".157" stop-color="#37CDEC"/><stop offset=".406" stop-color="#2CB6E0"/><stop offset=".45" stop-color="#2AB1DE"/><stop offset="1" stop-color="#454ACA"/></linearGradient><linearGradient id="paint17_linear" x1="144.848" y1="483.591" x2="596.671" y2="483.591" gradientUnits="userSpaceOnUse"><stop stop-color="#3BD5F0"/><stop offset=".157" stop-color="#37CDEC"/><stop offset=".406" stop-color="#2CB6E0"/><stop offset=".45" stop-color="#2AB1DE"/><stop offset="1" stop-color="#454ACA"/></linearGradient><linearGradient id="paint18_linear" x1="144.848" y1="497.358" x2="596.671" y2="497.358" gradientUnits="userSpaceOnUse"><stop stop-color="#3BD5F0"/><stop offset=".157" stop-color="#37CDEC"/><stop offset=".406" stop-color="#2CB6E0"/><stop offset=".45" stop-color="#2AB1DE"/><stop offset="1" stop-color="#454ACA"/></linearGradient><linearGradient id="paint19_linear" x1="144.848" y1="539.515" x2="596.671" y2="539.515" gradientUnits="userSpaceOnUse"><stop stop-color="#3BD5F0"/><stop offset=".157" stop-color="#37CDEC"/><stop offset=".406" stop-color="#2CB6E0"/><stop offset=".45" stop-color="#2AB1DE"/><stop offset="1" stop-color="#454ACA"/></linearGradient><linearGradient id="paint20_linear" x1="144.847" y1="552.062" x2="596.671" y2="552.062" gradientUnits="userSpaceOnUse"><stop stop-color="#3BD5F0"/><stop offset=".157" stop-color="#37CDEC"/><stop offset=".406" stop-color="#2CB6E0"/><stop offset=".45" stop-color="#2AB1DE"/><stop offset="1" stop-color="#454ACA"/></linearGradient><linearGradient id="paint21_linear" x1="144.847" y1="499.344" x2="596.672" y2="499.344" gradientUnits="userSpaceOnUse"><stop stop-color="#3BD5F0"/><stop offset=".157" stop-color="#37CDEC"/><stop offset=".406" stop-color="#2CB6E0"/><stop offset=".45" stop-color="#2AB1DE"/><stop offset="1" stop-color="#454ACA"/></linearGradient><linearGradient id="paint1_linear" x1="644.121" y1="607.494" x2="553.231" y2="765.082" gradientUnits="userSpaceOnUse"><stop stop-color="#B0B3C2"/><stop offset=".012" stop-color="#AFB2C2"/><stop offset=".233" stop-color="#A5AABE"/><stop offset=".507" stop-color="#A2A7BD"/><stop offset=".785" stop-color="#A7AABF"/><stop offset="1" stop-color="#AFB0C2"/></linearGradient><linearGradient id="paint23_linear" x1="144.847" y1="506.746" x2="596.672" y2="506.746" gradientUnits="userSpaceOnUse"><stop stop-color="#3BD5F0"/><stop offset=".157" stop-color="#37CDEC"/><stop offset=".406" stop-color="#2CB6E0"/><stop offset=".45" stop-color="#2AB1DE"/><stop offset="1" stop-color="#454ACA"/></linearGradient><linearGradient id="paint24_linear" x1="144.848" y1="509.635" x2="596.672" y2="509.635" gradientUnits="userSpaceOnUse"><stop stop-color="#3BD5F0"/><stop offset=".157" stop-color="#37CDEC"/><stop offset=".406" stop-color="#2CB6E0"/><stop offset=".45" stop-color="#2AB1DE"/><stop offset="1" stop-color="#454ACA"/></linearGradient><linearGradient id="paint25_linear" x1="144.848" y1="513.742" x2="596.671" y2="513.742" gradientUnits="userSpaceOnUse"><stop stop-color="#3BD5F0"/><stop offset=".157" stop-color="#37CDEC"/><stop offset=".406" stop-color="#2CB6E0"/><stop offset=".45" stop-color="#2AB1DE"/><stop offset="1" stop-color="#454ACA"/></linearGradient><linearGradient id="paint26_linear" x1="144.846" y1="518.075" x2="596.673" y2="518.075" gradientUnits="userSpaceOnUse"><stop stop-color="#3BD5F0"/><stop offset=".157" stop-color="#37CDEC"/><stop offset=".406" stop-color="#2CB6E0"/><stop offset=".45" stop-color="#2AB1DE"/><stop offset="1" stop-color="#454ACA"/></linearGradient><linearGradient id="paint27_linear" x1="144.848" y1="524.123" x2="596.671" y2="524.123" gradientUnits="userSpaceOnUse"><stop stop-color="#3BD5F0"/><stop offset=".157" stop-color="#37CDEC"/><stop offset=".406" stop-color="#2CB6E0"/><stop offset=".45" stop-color="#2AB1DE"/><stop offset="1" stop-color="#454ACA"/></linearGradient><linearGradient id="paint28_linear" x1="144.848" y1="528.185" x2="596.671" y2="528.185" gradientUnits="userSpaceOnUse"><stop stop-color="#3BD5F0"/><stop offset=".157" stop-color="#37CDEC"/><stop offset=".406" stop-color="#2CB6E0"/><stop offset=".45" stop-color="#2AB1DE"/><stop offset="1" stop-color="#454ACA"/></linearGradient><linearGradient id="paint29_linear" x1="144.847" y1="531.751" x2="596.672" y2="531.751" gradientUnits="userSpaceOnUse"><stop stop-color="#3BD5F0"/><stop offset=".157" stop-color="#37CDEC"/><stop offset=".406" stop-color="#2CB6E0"/><stop offset=".45" stop-color="#2AB1DE"/><stop offset="1" stop-color="#454ACA"/></linearGradient><linearGradient id="paint30_linear" x1="144.847" y1="535.723" x2="596.672" y2="535.723" gradientUnits="userSpaceOnUse"><stop stop-color="#3BD5F0"/><stop offset=".157" stop-color="#37CDEC"/><stop offset=".406" stop-color="#2CB6E0"/><stop offset=".45" stop-color="#2AB1DE"/><stop offset="1" stop-color="#454ACA"/></linearGradient><linearGradient id="paint31_linear" x1="144.848" y1="539.65" x2="596.671" y2="539.65" gradientUnits="userSpaceOnUse"><stop stop-color="#3BD5F0"/><stop offset=".157" stop-color="#37CDEC"/><stop offset=".406" stop-color="#2CB6E0"/><stop offset=".45" stop-color="#2AB1DE"/><stop offset="1" stop-color="#454ACA"/></linearGradient><linearGradient id="paint32_linear" x1="144.847" y1="545.879" x2="596.671" y2="545.879" gradientUnits="userSpaceOnUse"><stop stop-color="#3BD5F0"/><stop offset=".157" stop-color="#37CDEC"/><stop offset=".406" stop-color="#2CB6E0"/><stop offset=".45" stop-color="#2AB1DE"/><stop offset="1" stop-color="#454ACA"/></linearGradient><linearGradient id="paint33_linear" x1="144.847" y1="549.264" x2="596.671" y2="549.264" gradientUnits="userSpaceOnUse"><stop stop-color="#3BD5F0"/><stop offset=".157" stop-color="#37CDEC"/><stop offset=".406" stop-color="#2CB6E0"/><stop offset=".45" stop-color="#2AB1DE"/><stop offset="1" stop-color="#454ACA"/></linearGradient><linearGradient id="paint34_linear" x1="144.849" y1="553.281" x2="596.67" y2="553.281" gradientUnits="userSpaceOnUse"><stop stop-color="#3BD5F0"/><stop offset=".157" stop-color="#37CDEC"/><stop offset=".406" stop-color="#2CB6E0"/><stop offset=".45" stop-color="#2AB1DE"/><stop offset="1" stop-color="#454ACA"/></linearGradient><linearGradient id="paint35_linear" x1="144.847" y1="557.614" x2="596.672" y2="557.614" gradientUnits="userSpaceOnUse"><stop stop-color="#3BD5F0"/><stop offset=".157" stop-color="#37CDEC"/><stop offset=".406" stop-color="#2CB6E0"/><stop offset=".45" stop-color="#2AB1DE"/><stop offset="1" stop-color="#454ACA"/></linearGradient><linearGradient id="paint36_linear" x1="144.848" y1="560.548" x2="596.671" y2="560.548" gradientUnits="userSpaceOnUse"><stop stop-color="#3BD5F0"/><stop offset=".157" stop-color="#37CDEC"/><stop offset=".406" stop-color="#2CB6E0"/><stop offset=".45" stop-color="#2AB1DE"/><stop offset="1" stop-color="#454ACA"/></linearGradient><linearGradient id="paint37_linear" x1="144.849" y1="564.655" x2="596.67" y2="564.655" gradientUnits="userSpaceOnUse"><stop stop-color="#3BD5F0"/><stop offset=".157" stop-color="#37CDEC"/><stop offset=".406" stop-color="#2CB6E0"/><stop offset=".45" stop-color="#2AB1DE"/><stop offset="1" stop-color="#454ACA"/></linearGradient><linearGradient id="paint38_linear" x1="144.847" y1="569.485" x2="596.671" y2="569.485" gradientUnits="userSpaceOnUse"><stop stop-color="#3BD5F0"/><stop offset=".157" stop-color="#37CDEC"/><stop offset=".406" stop-color="#2CB6E0"/><stop offset=".45" stop-color="#2AB1DE"/><stop offset="1" stop-color="#454ACA"/></linearGradient><linearGradient id="paint39_linear" x1="144.847" y1="531.706" x2="596.671" y2="531.706" gradientUnits="userSpaceOnUse"><stop stop-color="#3BD5F0"/><stop offset=".157" stop-color="#37CDEC"/><stop offset=".406" stop-color="#2CB6E0"/><stop offset=".45" stop-color="#2AB1DE"/><stop offset="1" stop-color="#454ACA"/></linearGradient><linearGradient id="paint40_linear" x1="573.75" y1="255" x2="573.75" y2="653" gradientUnits="userSpaceOnUse"><stop offset=".068" stop-color="#0D0615" stop-opacity="0"/><stop offset="1" stop-color="#3B60A8"/></linearGradient><linearGradient id="paint41_linear" x1="451.75" y1="158" x2="451.75" y2="556" gradientUnits="userSpaceOnUse"><stop stop-color="#0D0615" stop-opacity="0"/><stop offset="1" stop-color="#638BD9"/></linearGradient><linearGradient id="paint42_linear" x1="286.75" y1="90.5" x2="286.75" y2="488.5" gradientUnits="userSpaceOnUse"><stop offset=".068" stop-color="#0D0615" stop-opacity="0"/><stop offset="1" stop-color="#3B60A8"/></linearGradient><linearGradient id="paint43_linear" x1="289.75" y1="254" x2="289.75" y2="652" gradientUnits="userSpaceOnUse"><stop stop-color="#0D0615" stop-opacity="0"/><stop offset="1" stop-color="#638BD9"/></linearGradient></defs></svg>