<svg width="194" height="48" viewBox="0 0 194 48" fill="none" xmlns="http://www.w3.org/2000/svg"><path d="M118.019 16.541l-5.222 2.155c.032.066.098.133.13.2a7.876 7.876 0 011.338 4.408 8.106 8.106 0 01-.62 3.083 7.89 7.89 0 01-2.806 3.48 7.593 7.593 0 01-4.341 1.36 7.784 7.784 0 01-3.036-.63 7.829 7.829 0 01-3.427-2.851c-.195-.332-.391-.663-.554-.995a15.317 15.317 0 01-2.024 4.608c-.261.365-.522.73-.816 1.094a14.645 14.645 0 002.383 2.122 13.135 13.135 0 007.441 2.32c1.828 0 3.59-.364 5.189-1.06a13.542 13.542 0 005.875-4.907 13.636 13.636 0 002.285-7.558c0-1.856-.359-3.646-1.044-5.27-.229-.597-.457-1.094-.751-1.559z" fill="#468AF9"/><path d="M92.202 27.05a7.795 7.795 0 01-2.48 2.784 7.591 7.591 0 01-4.341 1.36 7.92 7.92 0 01-2.35-.365l-6.43 2.652c.425.364.849.729 1.306 1.027a13.135 13.135 0 007.441 2.32c1.828 0 3.59-.364 5.19-1.06a13.544 13.544 0 005.875-4.906 13.295 13.295 0 002.219-6.464l-6.43 2.652z" fill="#fff"/><path d="M94.487 15.315c.228-.365.49-.696.783-1.06-.718-.83-1.566-1.559-2.448-2.189a13.135 13.135 0 00-7.441-2.32c-1.828 0-3.59.364-5.19 1.06a13.544 13.544 0 00-5.874 4.907 13.636 13.636 0 00-2.285 7.558c0 1.856.359 3.646 1.044 5.27.653 1.525 1.534 2.918 2.644 4.078l5.907-2.42a7.635 7.635 0 01-2.708-2.52 7.879 7.879 0 01-1.339-4.408c0-1.094.229-2.122.62-3.083a7.894 7.894 0 012.807-3.48 7.59 7.59 0 014.341-1.36c1.077 0 2.09.232 3.036.63a7.825 7.825 0 013.427 2.85c.26.365.456.763.652 1.194.36-1.69 1.077-3.282 2.024-4.707zM97.914 23.006l-4.961 2.055c-.033.199-.098.364-.13.563l5.874-2.42c0-.928-.098-1.856-.294-2.75a6.579 6.579 0 00-.49 2.552z" fill="#468AF9"/><path d="M95.433 21.945l-2.284 1.359-.36 2.287 2.481-1.094.163-2.552z" fill="#fff"/><path d="M98.73 23.105c.032-1.028.228-1.989.62-2.884a7.896 7.896 0 012.807-3.48 7.589 7.589 0 014.341-1.36c1.077 0 2.089.232 3.035.63.914.398 1.73.961 2.415 1.624l5.418-2.22a12.645 12.645 0 00-3.394-3.349 13.137 13.137 0 00-7.442-2.32c-1.827 0-3.59.364-5.189 1.06a13.543 13.543 0 00-5.875 4.907 13.636 13.636 0 00-2.285 7.558c0 .696.066 1.359.164 2.022l5.385-2.188z" fill="#fff"/><path d="M95.433 20.022l-1.795-.398s-.587 2.188-.75 4.343c-.164 2.155 0 1.558 0 1.558l2.545-4.177v-1.326zM18.571 35.072c-1.436 1.16-3.558 1.724-5.679 1.724-5.548 0-8.714-2.984-8.714-8.652V15.779H0v-4.807h4.178V5.105h5.907v5.867h6.756v4.807h-6.756v12.232c0 2.486 1.24 3.845 3.492 3.845 1.24 0 2.416-.331 3.33-1.06l1.664 4.276zM47.554 10.773L35.706 38.52c-2.317 5.834-5.549 7.592-9.759 7.592-2.513 0-5.157-.862-6.756-2.354l2.383-4.409c1.142 1.094 2.741 1.79 4.34 1.79 2.09 0 3.33-.994 4.44-3.547l.424-.994-11.032-25.824h6.169l7.963 18.995 7.996-18.995h5.68zM46.9 23.635c0-7.69 5.68-13.127 13.676-13.127 4.928 0 8.845 2.056 10.803 5.967l-4.537 2.685c-1.5-2.453-3.785-3.547-6.299-3.547-4.34 0-7.67 3.083-7.67 8.022 0 5.006 3.33 8.022 7.67 8.022 2.514 0 4.798-1.093 6.3-3.547l4.536 2.686c-1.925 3.845-5.875 6-10.803 6-7.996 0-13.675-5.47-13.675-13.16z" fill="#fff"/><path d="M158.882 10.017v1.558h6.984v4.806h-6.789V37.1h-5.94V16.381h-4.177v-4.84h4.177V9.917c0-5.403 3.166-8.917 9.074-8.917 2.056 0 4.047.43 5.352 1.392l-1.664 4.542c-.914-.63-2.056-1.061-3.264-1.061-2.481 0-3.753 1.392-3.753 4.144zM185.971 37.1l-6.495-8.918-6.56 8.918h-6.56l9.889-13.061-9.465-12.663h6.593l6.234 8.453 6.233-8.453h6.398l-9.498 12.596 9.922 13.16h-6.691V37.1z" fill="#468AF9"/><path d="M47 43.71c0-1.313.893-2.219 2.093-2.219s2.093.907 2.093 2.22c0 1.313-.893 2.219-2.093 2.219S47 44.992 47 43.71zm3.447 0c0-.937-.585-1.531-1.354-1.531-.77 0-1.354.594-1.354 1.532 0 .937.585 1.531 1.354 1.531.77 0 1.354-.594 1.354-1.531zM59.804 43.367v2.5h-.739V43.46c0-.844-.4-1.281-1.077-1.281-.77 0-1.262.5-1.262 1.438v2.25h-.739v-4.376h.708v.657c.308-.438.8-.688 1.447-.688.985.031 1.662.625 1.662 1.907zM64.944 39.772h.739v6.095h-.739v-6.095zM70.761 40.178c0-.281.216-.531.493-.531a.49.49 0 01.492.5c0 .281-.215.531-.492.531-.308 0-.493-.219-.493-.5zm.124 1.344h.738V45.9h-.739v-4.377zM80.61 43.367v2.5h-.738V43.46c0-.844-.4-1.281-1.077-1.281-.77 0-1.262.5-1.262 1.438v2.25h-.74v-4.376h.709v.657c.308-.438.8-.688 1.447-.688.984.031 1.662.625 1.662 1.907zM89.413 43.96h-3.262c.092.75.646 1.282 1.446 1.282.462 0 .862-.187 1.17-.531l.4.5c-.37.469-.923.719-1.6.719-1.293 0-2.155-.938-2.155-2.22 0-1.281.862-2.219 2.031-2.219 1.17 0 2.001.907 2.001 2.25-.03.063-.03.157-.03.22zm-3.262-.562h2.585c-.061-.72-.585-1.25-1.293-1.25-.707 0-1.23.5-1.292 1.25zM100.894 41.147v.375h1.169v.657h-1.138v3.72h-.739v-3.72h-.677v-.657h.677v-.375c0-.844.462-1.407 1.323-1.407.308 0 .616.094.831.25l-.215.594a.878.878 0 00-.554-.219c-.462 0-.677.282-.677.782zM106.126 43.71c0-1.313.893-2.219 2.093-2.219 1.201 0 2.093.907 2.093 2.22 0 1.313-.892 2.219-2.093 2.219-1.2 0-2.093-.938-2.093-2.22zm3.447 0c0-.937-.584-1.531-1.354-1.531-.769 0-1.354.594-1.354 1.532 0 .937.585 1.531 1.354 1.531.77 0 1.354-.594 1.354-1.531zM117.299 41.491v.75h-.154c-.769 0-1.262.532-1.262 1.47v2.188h-.738v-4.377h.707v.72c.216-.5.739-.751 1.447-.751zM125.579 43.96h-3.263c.092.75.646 1.282 1.447 1.282.461 0 .861-.187 1.169-.531l.4.5c-.369.469-.923.719-1.6.719-1.293 0-2.155-.938-2.155-2.22 0-1.281.862-2.219 2.032-2.219 1.169 0 2 .907 2 2.25-.03.063-.03.157-.03.22zm-3.294-.562h2.586c-.062-.72-.585-1.25-1.293-1.25-.677 0-1.2.5-1.293 1.25zM132.842 45.899l-1.169-1.657-1.17 1.657h-.8l1.6-2.22-1.508-2.126h.8l1.109 1.564 1.108-1.563h.8l-1.508 2.125 1.6 2.22h-.862zM146.385 45.617c-.215.22-.554.313-.892.313-.801 0-1.262-.5-1.262-1.376v-2.407h-.678v-.656h.678v-.97h.738v.97h1.17v.656h-1.2v2.376c0 .469.215.72.615.72.216 0 .431-.063.585-.22l.246.594zM153.218 41.491v.75h-.154c-.769 0-1.262.532-1.262 1.47v2.188h-.739v-4.377h.708v.72c.247-.5.739-.751 1.447-.751zM161.097 43.242v2.626h-.677v-.563c-.246.406-.677.625-1.323.625-.924 0-1.478-.531-1.478-1.282 0-.687.431-1.281 1.632-1.281h1.169v-.157c0-.656-.369-1.063-1.077-1.063-.492 0-.954.188-1.262.47l-.308-.595c.431-.375 1.016-.562 1.662-.562 1.047.031 1.662.594 1.662 1.782zm-.738 1.313v-.594h-1.139c-.708 0-.923.312-.923.687 0 .438.338.72.892.72.554-.032.985-.313 1.17-.813zM170.054 39.772v6.095h-.708v-.687c-.338.5-.831.75-1.446.75-1.17 0-2.032-.907-2.032-2.22 0-1.313.862-2.22 2.032-2.22.584 0 1.077.22 1.415.689v-2.407h.739zm-.708 3.938c0-.938-.585-1.531-1.354-1.531-.77 0-1.354.593-1.354 1.531s.584 1.532 1.354 1.532c.769 0 1.354-.594 1.354-1.532zM175.133 40.178c0-.281.215-.531.492-.531a.49.49 0 01.493.5c0 .281-.216.531-.493.531a.49.49 0 01-.492-.5zm.123 1.344h.738V45.9h-.738v-4.377zM184.982 43.367v2.5h-.739V43.46c0-.844-.4-1.281-1.077-1.281-.77 0-1.262.5-1.262 1.438v2.25h-.739v-4.376h.708v.657c.308-.438.8-.688 1.447-.688.985.031 1.662.625 1.662 1.907zM194 41.522v3.783c0 1.532-.708 2.25-2.093 2.25-.739 0-1.477-.218-1.908-.656l.338-.594c.37.344.954.563 1.539.563.954 0 1.385-.47 1.385-1.47v-.343a1.798 1.798 0 01-1.446.688c-1.17 0-2.032-.845-2.032-2.126 0-1.25.893-2.095 2.032-2.095.585 0 1.139.25 1.477.72v-.688H194v-.032zm-.708 2.063c0-.844-.585-1.406-1.385-1.406s-1.385.562-1.385 1.406c0 .844.585 1.438 1.385 1.438.831 0 1.385-.594 1.385-1.438zM133.359 15.779c.685-.298 1.436-.43 2.219-.43 1.175 0 2.187.297 3.003.96.783.663 1.305 1.625 1.599 2.818.196.796.294 1.724.294 2.785v14.42h6.266V20.784c0-1.592-.228-3.017-.652-4.244a9.15 9.15 0 00-1.991-3.248c-.882-.928-1.861-1.624-2.938-2.089-1.077-.464-2.284-.696-3.59-.696a8.685 8.685 0 00-3.688.796c-1.175.53-2.285 1.359-3.329 2.42l-.849.862v-3.647h-6.266v25.392h6.266v-14.22c0-1.061.131-2.023.425-2.884a5.818 5.818 0 011.338-2.155 6.036 6.036 0 011.893-1.293z" fill="#fff"/></svg>